<svg xmlns="http://www.w3.org/2000/svg" viewBox="0 0 146 45" class="icon-svg" width="146" height="45" style="display:inline-block;vertical-align:middle">
  <g class="}">
    <path d="M56.747 32.344V7.6l2.998-.569v25.313h-2.998Zm59.956-6.399V10.586l2.997-.568v5.261h6.281v2.418H119.7v8.248c0 2.773 1.071 5.048 6.353 3.057l.571 2.417c-3.284 1.21-9.921 2.489-9.921-5.474ZM84.87 15.28h-3.213l6.21 16.637h2.712L96.86 15.28h-3.14l-4.283 12.94h-.142l-4.426-12.94Z" fill="#221F20"/><path fill-rule="evenodd" clip-rule="evenodd" d="m50.895 28.93.428 2.56c-11.492 3.271-13.419-3.839-13.419-8.105s2.855-8.533 6.924-8.533h.246c2.255-.017 7.737-.056 7.462 9.528H40.941c.434 5.379 4.493 6.297 9.954 4.55Zm-9.92-6.825h8.42c-.07-2.133-.856-4.764-3.925-4.764-1.425 0-4.027.879-4.495 4.764ZM78.16 31.49l-.428-2.56c-5.46 1.747-9.52.829-9.954-4.55h11.595c.275-9.584-5.207-9.545-7.462-9.529l-.246.001c-4.069 0-6.924 4.267-6.924 8.533 0 4.266 1.927 11.376 13.419 8.105Zm-1.927-9.385h-8.42c.467-3.885 3.069-4.764 4.494-4.764 3.07 0 3.854 2.63 3.926 4.764Zm65.308 6.825.428 2.56c-11.491 3.271-13.418-3.839-13.418-8.105s2.855-8.533 6.923-8.533h.246c2.256-.017 7.738-.056 7.463 9.528h-11.596c.434 5.379 4.494 6.297 9.954 4.55Zm-9.919-6.825h8.42c-.071-2.133-.856-4.764-3.925-4.764-1.426 0-4.027.879-4.495 4.764Zm-30.765-4.053-.357-2.488c8.851-2.418 11.349 1.493 11.349 5.119v11.02l-.71.093h-.002c-5.46.71-12.202 1.586-12.421-4.572 0-3.91 3.141-6.114 10.135-6.541 0-4.323-5.329-3.555-7.994-2.63Zm7.994 11.59V23.1c-2.355.024-7.066.711-7.066 3.982 0 3.27 4.711 3.01 7.066 2.56Z" fill="#221F20"/><path d="M25.896 11.751a13.978 13.978 0 0 0-9.056-3.313c-7.555 0-13.717 5.972-14.032 13.459 6.165 1.234 16.35.7 23.088-10.146Z" fill="#73D4AE"/>
    <path d="M28.681 14.935a14.01 14.01 0 0 1 2.203 7.565c0 7.767-6.288 14.063-14.044 14.063-6.479 0-11.933-4.393-13.554-10.365 9.468.968 18.655-.834 25.395-11.263Z" fill="#73D4AE"/>
  </g>
</svg>
