<?xml version="1.0" encoding="UTF-8"?>
<svg width="184px" height="29px" viewBox="0 0 184 29" version="1.1" xmlns="http://www.w3.org/2000/svg" xmlns:xlink="http://www.w3.org/1999/xlink">
    <!-- Generator: sketchtool 60 (101010) - https://sketch.com -->
    <title>EA045F62-CE1F-4271-BC61-52AEB1949E83</title>
    <desc>Created with sketchtool.</desc>
    <defs>
        <linearGradient x1="-13.7466755%" y1="-5.05104405%" x2="89.1165226%" y2="70.6155406%" id="linearGradient-1">
            <stop stop-color="#49BEFA" offset="0%"></stop>
            <stop stop-color="#3661EB" offset="100%"></stop>
        </linearGradient>
        <linearGradient x1="78.0460439%" y1="3.14025843%" x2="9.42486674%" y2="71.8587271%" id="linearGradient-2">
            <stop stop-color="#2E55EA" offset="0%"></stop>
            <stop stop-color="#4DD2FE" offset="100%"></stop>
        </linearGradient>
    </defs>
    <g id="2019-Fall-Updates" stroke="none" stroke-width="1" fill="none" fill-rule="evenodd">
        <g id="Updates_13_Nov_2019---Elevate-Logo-v1" transform="translate(-14.000000, -10.000000)">
            <g id="header">
                <g id="Logo" transform="translate(14.000000, 10.000000)">
                    <g id="underline" transform="translate(31.367013, 16.631111)">
                        <path d="M13,9.44296296 L13,2.52148148 L14.0736211,2.52148148 L14.0736211,8.52325926 L17.0356652,8.52325926 L17.0356652,9.44296296 L13,9.44296296 Z M20.0456388,9.53777778 C18.6844406,9.53777778 17.6108194,8.5517037 17.6108194,7.25274074 C17.6108194,6.00118519 18.6365111,4.9677037 20.0456388,4.9677037 C21.6560705,4.9677037 22.3558415,6.15288889 22.3558415,7.34755556 L22.3558415,7.57511111 L18.7131983,7.57511111 C18.7994714,8.2482963 19.4033833,8.61807407 20.0552247,8.61807407 C20.7070661,8.61807407 21.2055331,8.30518519 21.5410397,8.00177778 L22.1641234,8.74133333 C21.6368987,9.21540741 20.8700265,9.53777778 20.0456388,9.53777778 Z M18.7707137,6.81659259 L21.2247049,6.81659259 C21.2247049,6.47525926 20.9562996,5.88740741 20.0456388,5.88740741 C19.0678767,5.88740741 18.7707137,6.57007407 18.7707137,6.81659259 Z M22.7872071,9.44296296 L24.6564582,7.07259259 L23.0651983,5.06251852 L24.4263965,5.06251852 L25.3945727,6.26666667 L26.3339912,5.06251852 L27.6856035,5.06251852 L26.0464142,7.12948148 L27.8677356,9.44296296 L26.5257093,9.44296296 L25.3178855,7.93540741 L24.1292335,9.44296296 L22.7872071,9.44296296 Z M28.5387488,9.44296296 L28.5387488,2.52148148 L30.8201938,2.52148148 C31.2228017,2.52148148 31.7308546,2.59733333 32.0567753,2.768 C32.7086167,3.09985185 33.2262554,3.792 33.2262554,4.73066667 C33.2262554,5.81155556 32.6031717,6.49422222 31.8938149,6.77866667 C31.587066,6.89244444 31.1461145,6.92088889 30.7818502,6.92088889 L29.61237,6.92088889 L29.61237,9.44296296 L28.5387488,9.44296296 Z M29.61237,6.00118519 L30.7914361,6.00118519 C31.0406695,6.00118519 31.2515594,6.00118519 31.5103788,5.92533333 C31.8746431,5.82103704 32.1622202,5.33748148 32.1622202,4.74962963 C32.1622202,4.1997037 31.9034008,3.76355556 31.5966519,3.59288889 C31.4145198,3.49807407 31.1269427,3.44118519 30.8201938,3.44118519 L29.61237,3.44118519 L29.61237,6.00118519 Z M34.1848458,9.44296296 L34.1848458,5.06251852 L35.1721938,5.06251852 L35.2201233,5.328 C35.4885286,5.14785185 35.9198942,4.9677037 36.3704317,4.9677037 C36.734696,4.9677037 37.1660616,5.04355556 37.52074,5.31851852 L37.0702026,6.17185185 C36.8209691,5.9442963 36.6196651,5.88740741 36.2745726,5.88740741 C35.8336211,5.88740741 35.4693568,6.096 35.2584669,6.38044444 L35.2584669,9.44296296 L34.1848458,9.44296296 Z M40.291066,9.53777778 C38.9298678,9.53777778 37.8562466,8.5517037 37.8562466,7.25274074 C37.8562466,6.00118519 38.8819383,4.9677037 40.291066,4.9677037 C41.9014977,4.9677037 42.6012687,6.15288889 42.6012687,7.34755556 L42.6012687,7.57511111 L38.9586255,7.57511111 C39.0448986,8.2482963 39.6488105,8.61807407 40.3006519,8.61807407 C40.9524933,8.61807407 41.4509603,8.30518519 41.7864669,8.00177778 L42.4095506,8.74133333 C41.8823259,9.21540741 41.1154537,9.53777778 40.291066,9.53777778 Z M39.0161409,6.81659259 L41.4701321,6.81659259 C41.4701321,6.47525926 41.2017268,5.88740741 40.291066,5.88740741 C39.3133039,5.88740741 39.0161409,6.57007407 39.0161409,6.81659259 Z M45.7262731,9.53777778 C44.345903,9.53777778 43.3681409,8.58962963 43.3681409,7.25274074 C43.3681409,5.96325926 44.2883876,4.9677037 45.7262731,4.9677037 C46.2151541,4.9677037 46.6561057,5.12888889 47.02037,5.37540741 L47.02037,2 L48.0939911,2 L48.0939911,9.44296296 L47.1258149,9.44296296 L47.0682995,9.10162963 C46.723207,9.37659259 46.2055682,9.53777778 45.7262731,9.53777778 Z M45.8221321,8.61807407 C46.4164581,8.61807407 46.819066,8.40948148 47.02037,8.10607407 L47.02037,6.40888889 C46.7998942,6.10548148 46.4164581,5.88740741 45.8221321,5.88740741 C44.8731277,5.88740741 44.4417621,6.49422222 44.4417621,7.25274074 C44.4417621,8.0397037 44.9018854,8.61807407 45.8221321,8.61807407 Z M49.3305732,9.44296296 L49.3305732,5.06251852 L50.4041944,5.06251852 L50.4041944,9.44296296 L49.3305732,9.44296296 Z M49.8577979,4.06696296 C49.5222913,4.06696296 49.2443001,3.792 49.2443001,3.46014815 C49.2443001,3.1282963 49.5222913,2.84385185 49.8577979,2.84385185 C50.1933045,2.84385185 50.4808816,3.1282963 50.4808816,3.46014815 C50.4808816,3.792 50.1933045,4.06696296 49.8577979,4.06696296 Z M53.8647054,9.53777778 C52.522679,9.53777778 51.4394719,8.56118519 51.4394719,7.25274074 C51.4394719,5.96325926 52.5322649,4.9677037 53.8742913,4.9677037 C54.7466085,4.9677037 55.3505204,5.29955556 55.7914719,5.79259259 L55.1588023,6.4562963 C54.794538,6.096 54.5069609,5.88740741 53.8742913,5.88740741 C52.9636305,5.88740741 52.5130931,6.5037037 52.5130931,7.26222222 C52.5130931,8.03022222 52.9732164,8.61807407 53.8742913,8.61807407 C54.6028199,8.61807407 54.9479124,8.30518519 55.2354895,8.02074074 L55.8585732,8.71288889 C55.3696922,9.22488889 54.698679,9.53777778 53.8647054,9.53777778 Z M58.3604939,9.53777778 C57.5744499,9.53777778 57.0759829,9.14903704 56.9130226,8.58962963 C56.8363353,8.31466667 56.8363353,7.98281481 56.8363353,7.64148148 L56.8363353,5.98222222 L56.3282825,5.98222222 L56.3282825,5.06251852 L56.8363353,5.06251852 L56.8363353,3.58340741 L57.9099565,3.58340741 L57.9099565,5.06251852 L59.5491459,5.06251852 L59.5491459,5.98222222 L57.9099565,5.98222222 L57.9099565,7.5277037 C57.9099565,7.80266667 57.9195424,8.11555556 57.9483001,8.26725926 C57.9866437,8.45688889 58.0920886,8.61807407 58.3700798,8.61807407 C58.6384851,8.61807407 58.9164763,8.51377778 59.2903265,8.30518519 L59.6737627,9.15851852 C59.2232252,9.41451852 58.7918596,9.53777778 58.3604939,9.53777778 Z" id="by-LexPredict" fill="#434343" fill-rule="nonzero"></path>
                        <path d="M6.416881,5.06251852 L7.69180611,7.90696296 L8.92838761,5.06251852 L10.078696,5.06251852 L7.01120699,11.8607407 L5.85131272,11.8607407 L7.12623783,9.11111111 L5.25698672,5.06251852 L6.416881,5.06251852 Z M1.13744487,2 L1.13744487,5.37540741 C1.50170919,5.12888889 1.94266073,4.9677037 2.43154179,4.9677037 C3.86942725,4.9677037 4.78967395,5.96325926 4.78967395,7.25274074 C4.78967395,8.58962963 3.81191183,9.53777778 2.43154179,9.53777778 C1.95224664,9.53777778 1.43460787,9.37659259 1.08951536,9.10162963 L1.03199994,9.44296296 L0.0638237286,9.44296296 L0.0638237286,2 L1.13744487,2 Z M2.33568276,5.88740741 C1.74135677,5.88740741 1.33874884,6.10548148 1.13744487,6.40888889 L1.13744487,8.10607407 C1.33874884,8.40948148 1.74135677,8.61807407 2.33568276,8.61807407 C3.25592946,8.61807407 3.7160528,8.0397037 3.7160528,7.25274074 C3.7160528,6.49422222 3.28468716,5.88740741 2.33568276,5.88740741 Z" id="Combined-Shape" fill="#8492A8" fill-rule="nonzero"></path>
                        <g id="Elevate-Logo" transform="translate(75.632987, 2.368889)">
                            <path d="M12.7612353,5.02087565 C12.2758906,5.02087565 11.7904597,5.02441548 11.3052014,5.01824237 C11.1908046,5.01677464 11.1626587,5.0538133 11.185538,5.15789281 C11.2109643,5.2735415 11.2221018,5.39273001 11.2532264,5.50665196 C11.4191233,6.11321403 11.8253831,6.45018815 12.4588392,6.49901185 C12.9246284,6.53488496 13.3859713,6.50803408 13.8266364,6.33389193 C13.9113332,6.30043626 13.940472,6.31554528 13.9524297,6.40201199 C13.9759998,6.57265749 14.0017715,6.74313031 14.0332414,6.91248074 C14.0466668,6.98496083 14.0258164,7.02480545 13.9574805,7.04643292 C13.1182396,7.31217885 12.2784808,7.38431359 11.4504637,7.01548103 C11.0812427,6.85100865 10.7827749,6.58370865 10.6128201,6.21509193 C10.1412031,5.19225501 10.1336055,4.17079949 10.7633059,3.21232696 C11.4365203,2.18763379 12.8742075,2.18702943 13.584072,2.69413103 C14.0064768,2.99587958 14.1943898,3.43335022 14.2925552,3.92171664 C14.3565742,4.24030094 14.3652511,4.56328844 14.3685631,4.88722565 C14.3696543,4.99238438 14.3407745,5.02454499 14.2335005,5.02333626 C13.742803,5.01776751 13.2520191,5.02087565 12.7612353,5.02087565" id="Fill-1" fill="#231F20"></path>
                            <path d="M15.7451183,0.287459738 C15.9201238,0.258752616 16.0957337,0.23328314 16.2698327,0.199956977 C16.3556519,0.183509738 16.3933381,0.206173256 16.3831934,0.295704942 C16.380776,0.317030233 16.3828049,0.338830378 16.3828049,0.36041468 C16.3828049,2.59356977 16.3814667,4.82676802 16.3860874,7.05992311 C16.3863447,7.20017791 16.3565584,7.25379331 16.2093103,7.23851163 C15.9910498,7.21576177 15.7692495,7.26341991 15.5512481,7.21343067 C15.5524568,5.80751555 15.5539245,4.40160044 15.5547879,2.99564215 C15.5553491,2.17686323 15.5594933,1.35799797 15.5508596,0.539262209 C15.549176,0.384459593 15.5816819,0.295791279 15.7451183,0.287459738" id="Fill-3" fill="#231F20"></path>
                            <path d="M21.465062,3.13899214 C21.7649975,3.68032644 21.8311318,4.26858501 21.8239226,4.87449955 C21.8224117,5.00094039 21.7825239,5.02381975 21.6664435,5.02325856 C20.7011072,5.01876903 19.7357709,5.02278371 18.7704777,5.01842368 C18.6299639,5.01777615 18.5916302,5.05891583 18.6540088,5.1853135 C18.6815504,5.93567019 19.1838171,6.45244156 19.9376273,6.50165376 C20.398668,6.53174228 20.8539241,6.50256031 21.2888478,6.33044708 C21.3728107,6.29716408 21.3919776,6.3234106 21.4025107,6.39701307 C21.4269441,6.56752906 21.4493055,6.73860624 21.4827611,6.90743865 C21.499122,6.98980435 21.47171,7.0258933 21.3985392,7.04976554 C20.6313899,7.29962542 19.8562544,7.36515536 19.0845293,7.09332266 C18.4950188,6.88559533 18.0981699,6.46405391 17.9107749,5.86698894 C17.6562528,5.05610987 17.6672608,4.25291481 18.0477058,3.47700231 C18.402379,2.75358283 19.1721616,2.3250481 19.9785511,2.37145435 C20.4750764,2.40003196 20.9223463,2.52776786 21.2715803,2.90251452 C21.3408228,2.97689403 21.4008271,3.05995042 21.465062,3.13899214" id="Fill-5" fill="#231F20"></path>
                            <path d="M24.1210277,4.82189429 C24.2442309,5.2617392 24.4002422,5.69031711 24.569161,6.16499908 C24.6924505,5.79797961 24.8025304,5.47460359 24.9098044,5.15032103 C25.1901845,4.30300766 25.4712985,3.4559533 25.746153,2.60691318 C25.77663,2.51284879 25.8151364,2.48017016 25.9128701,2.48288978 C26.1548733,2.48962408 26.3972219,2.48509138 26.659687,2.48509138 C26.5232742,2.85474414 26.392128,3.21079879 26.2605932,3.56668077 C25.8336557,4.72165679 25.404603,5.87585577 24.9826299,7.0326017 C24.9399793,7.14954545 24.8855437,7.18839719 24.763765,7.18118804 C24.5650168,7.16935984 24.3651461,7.17622365 24.1657935,7.1751876 C23.5914784,5.61671464 23.0172496,4.05828484 22.4375816,2.48517772 C22.7262501,2.48517772 22.9954926,2.4893219 23.2644762,2.48288978 C23.3592745,2.48064501 23.3640662,2.54393019 23.3834489,2.602769 C23.6190631,3.31824545 23.8542457,4.03385141 24.0899463,4.74928469 C24.0981483,4.77423615 24.1105809,4.79771987 24.1210277,4.82189429" id="Fill-7" fill="#231F20"></path>
                            <path d="M30.6326189,7.11501488 C30.2858455,7.14726183 29.9414895,7.19945267 29.5938095,7.22669206 C29.0719875,7.26757273 28.5553888,7.27128523 28.0481145,7.11972026 C27.698492,6.97644366 27.4308034,6.74579381 27.275526,6.39526474 C27.1747273,6.07106852 27.1502075,5.74173523 27.2085715,5.40674686 C27.3614315,4.86826169 27.7421354,4.55572099 28.240258,4.35244003 C28.7399345,4.14846837 29.2622315,4.05362695 29.7959681,4.00765238 C29.9914787,3.99081663 29.9953207,3.98680195 29.9501664,3.79655791 C29.851483,3.38067157 29.5292725,3.11868131 29.0883052,3.10016198 C28.6765199,3.08285137 28.2684039,3.11324206 27.8738428,3.23786983 C27.763029,3.27287956 27.7484812,3.2329486 27.7366962,3.1438486 C27.7134283,2.96776387 27.6829513,2.79262884 27.6554097,2.61710529 C27.6652953,2.56560515 27.7060465,2.55360427 27.748697,2.54164657 C28.3773183,2.36530282 29.0139689,2.30426241 29.6575264,2.43666052 C30.0770821,2.52299773 30.4031777,2.7525252 30.6117252,3.1349127 C30.7711901,3.49144221 30.7995518,3.86994453 30.7995518,4.25323858 C30.7995518,5.12994977 30.7954077,6.00666096 30.8037392,6.88332898 C30.8050343,7.02336794 30.7773632,7.10197797 30.6326189,7.11501488" id="Fill-9" fill="#231F20"></path>
                            <path d="M38.2149468,6.49652965 C38.4707208,6.48906148 38.7160912,6.4277189 38.9525688,6.33667631 C39.0553532,6.29713387 39.0805637,6.32510712 39.0923919,6.4219343 C39.1113861,6.57695276 39.1319775,6.73274826 39.1683686,6.88422689 C39.1937949,6.99016265 39.1558929,7.02754666 39.0627782,7.05750567 C38.3325381,7.29255872 37.5976358,7.34341134 36.8540134,7.12506453 C36.8439983,7.1220859 36.8327313,7.1235968 36.8220686,7.12303561 C35.8180964,6.73322311 35.4657111,5.9266609 35.4350614,4.92696235 C35.4142109,4.24774753 35.5523505,3.61049259 36.0046279,3.07153256 C36.3401775,2.67166177 36.77454,2.46164651 37.282505,2.38588561 C37.3135864,2.3812234 37.3441066,2.37289186 37.3748858,2.36628706 C37.6270768,2.37069026 37.8800448,2.36762529 38.1273577,2.42857936 C38.901932,2.61955727 39.28419,3.16261831 39.4404603,3.90295988 C39.5085804,4.22573154 39.5153147,4.55424462 39.5166135,4.8833189 C39.5170846,5.00091017 39.4720598,5.02327151 39.3650016,5.02288299 C38.4005718,5.01912733 37.436142,5.02314201 36.4717122,5.0179186 C36.3370262,5.01714157 36.2869506,5.04148866 36.3241619,5.18618983 C36.3599487,5.32549491 36.3608984,5.4736064 36.4296228,5.60501163 C36.4852672,5.63725858 36.5025778,5.6964859 36.5264069,5.7491516 C36.7473869,6.23786337 37.1561505,6.42599215 37.6610505,6.45711672 C37.7893044,6.46505974 37.9183785,6.45690087 38.047021,6.45918881 C38.1049964,6.46018169 38.1662958,6.45146163 38.2149468,6.49652965" id="Fill-11" fill="#231F20"></path>
                            <path d="M34.7480503,7.08428315 C34.3611301,7.20960161 33.9665259,7.2680519 33.5580214,7.25082763 C32.8322276,7.22017792 32.3579773,6.86377792 32.2038222,6.20860801 C32.1508112,5.98331106 32.1207658,5.75352458 32.1207658,5.52101847 C32.1206363,4.12045626 32.1217587,2.71993722 32.1185625,1.31941818 C32.1183052,1.21261906 32.1464943,1.17001164 32.2574808,1.1549458 C32.4750074,1.12537531 32.6898576,1.07637894 32.9058301,1.03541193 C32.9635033,1.08142967 32.9376022,1.14566455 32.9379475,1.20148156 C32.9403218,1.56789667 32.9491282,1.93478664 32.9346235,2.30068374 C32.9281483,2.46468126 32.9820658,2.4921365 33.1314292,2.48894202 C33.6054637,2.47888374 34.079973,2.49131629 34.5540506,2.48138751 C34.69396,2.47845205 34.7301785,2.52092996 34.7167962,2.65160132 C34.7053565,2.76362385 34.7031549,2.87914304 34.7171416,2.99051804 C34.7368265,3.14747908 34.6858875,3.22069304 34.523444,3.20074914 C34.4550218,3.25885408 34.3717496,3.24814827 34.2919308,3.24845045 C33.925861,3.24974551 33.5597913,3.24767342 33.1937215,3.24952967 C33.0021824,3.25047937 32.9872029,3.26403432 32.9867712,3.44836426 C32.9853035,4.0997785 32.982109,4.75119275 32.988498,5.40252065 C32.9906132,5.61784565 33.0234214,5.83135757 33.1021609,6.03511339 C33.2049885,6.301291 33.4052045,6.43248039 33.6825628,6.44992051 C33.9582807,6.46723112 34.2320128,6.45717283 34.4922331,6.34769725 C34.5171414,6.33893403 34.5432153,6.33431499 34.5687711,6.32758068 C34.7809448,6.27176368 34.8100836,6.29326164 34.8118103,6.50832763 C34.8314089,6.60701106 34.8433666,6.70806876 34.8725054,6.8038599 C34.9134292,6.93841644 34.9166237,7.04698548 34.7480503,7.08428315" id="Fill-13" fill="#231F20"></path>
                            <path d="M12.342871,4.38641372 C12.0031341,4.38641372 11.6633972,4.38615471 11.3236603,4.38662956 C11.2576987,4.3867159 11.1910032,4.39884628 11.2056373,4.29135645 C11.3155446,3.48315384 11.9025944,2.94026547 12.7007819,3.12796256 C13.2684491,3.26148305 13.4943504,3.85056183 13.4877456,4.30983262 C13.486321,4.40786852 13.4169491,4.38563669 13.3620818,4.38585253 C13.0223449,4.38693174 12.682608,4.38641372 12.342871,4.38641372" id="Fill-15" fill="#FDFDFD"></path>
                            <path d="M6.45339126,7.50682177 C6.35932687,7.59583544 6.24816772,7.65782555 6.13148298,7.71118195 C6.08334999,7.63637076 6.22010813,7.59570593 6.17616249,7.54506916 C6.10903531,7.46775419 6.00258153,7.44094648 5.90571118,7.40848369 C5.37460783,7.23045637 4.84328865,7.05251538 4.32215725,6.84686015 C3.83581975,6.6549757 3.33894911,6.49361145 2.84609315,6.32063485 C2.53605624,6.21184997 2.23767484,6.07301974 1.92699039,5.96492555 C1.7489199,5.9029786 1.56528065,5.85739256 1.39191554,5.78219285 C1.33424228,5.75711189 1.26370478,5.74342744 1.2646873,5.65760826 C1.35984126,5.56751538 1.48723182,5.57416334 1.6026215,5.54463602 C1.70661467,5.53932628 1.80503908,5.48963922 1.91170871,5.50552526 C2.21522717,5.67625709 2.55638865,5.74847817 2.87851278,5.87038631 C3.69042789,6.17761727 4.51024286,6.46365244 5.32414374,6.76570317 C5.70325042,6.90643282 6.08205493,7.04776683 6.46625551,7.17420767 C6.53316685,7.19622366 6.61182004,7.21383645 6.62632469,7.29292134 C6.64182222,7.37727279 6.56191714,7.40731814 6.50666132,7.44711959 C6.48408414,7.46335099 6.46729156,7.48351073 6.45339126,7.50682177" id="Fill-17" fill="#60904A"></path>
                            <path d="M1.27280041,5.66051782 C1.3432084,5.7662809 1.46960608,5.76934587 1.57023209,5.80267203 C2.41063849,6.08128221 3.23338892,6.40906142 4.06732003,6.70537073 C4.60770462,6.89734151 5.15162904,7.08426157 5.68549517,7.2966511 C5.84435564,7.35989311 6.01517381,7.38976578 6.16812017,7.47385823 C6.26369547,7.52643759 6.32426102,7.56226753 6.18435157,7.63375474 C6.15991814,7.64623047 6.14878064,7.68469369 6.1315132,7.71119922 C6.08454576,7.75402247 6.02954895,7.78126186 5.96768834,7.79507581 C5.9178286,7.75255474 5.85976683,7.72617872 5.79838108,7.70429224 C5.08972526,7.4516264 4.38283936,7.19365081 3.67871625,6.92902727 C2.85885811,6.62093294 2.02281174,6.35717276 1.21184634,6.02499035 C1.16405869,6.0053918 1.11635738,5.9711591 1.05907265,5.99222538 C1.01840782,6.02680343 1.0200914,6.08831869 0.977009128,6.12121317 C0.953913924,6.13170314 0.932372791,6.13062392 0.913033256,6.11288163 C0.927494738,5.93001942 1.01309808,5.78954878 1.16574227,5.6891386 C1.20247875,5.68352669 1.22984765,5.64299137 1.27280041,5.66051782" id="Fill-19" fill="#5D8D4B"></path>
                            <path d="M7.06670922,6.98458094 C7.01322331,7.0586151 6.95084468,7.12354068 6.87365922,7.17327092 C6.76690326,7.08745173 6.63916735,7.04436946 6.51415108,6.99494141 C5.66360006,6.6590465 4.79155108,6.38190406 3.94009352,6.04743371 C3.51548712,5.88067339 3.07896619,5.74128196 2.64883422,5.58660885 C2.5682816,5.55764272 2.48125369,5.53446118 2.45781314,5.43327397 C2.45828799,5.42226597 2.4592377,5.40499853 2.46571299,5.40348763 C2.65202869,5.359801 2.82725006,5.25239751 3.03074686,5.30657411 C3.38127593,5.39990464 3.7029252,5.57003211 4.04594294,5.68455842 C4.99724948,6.0020635 5.92710122,6.37970246 6.87706953,6.70126539 C6.91285631,6.7133526 6.94877259,6.7251808 6.98322113,6.74067833 C7.13133262,6.80707164 7.13940515,6.83103022 7.06670922,6.98458094" id="Fill-21" fill="#649549"></path>
                            <path d="M1.78125318,0.735316744 C1.85770478,0.665728953 1.94231525,0.609264419 2.04004897,0.573779826 C2.10285929,0.558109622 2.15310754,0.5145525 2.21440696,0.495212965 C2.22999083,0.489212529 2.24596321,0.485413692 2.26253996,0.483557442 C2.61794708,0.575161221 2.96066263,0.707861512 3.2993635,0.843238256 C3.88550682,1.0774711 4.49159403,1.25523942 5.07510406,1.49426398 C5.31961103,1.59437198 5.56808952,1.68196108 5.81514344,1.77429872 C5.87782426,1.79773927 5.97124112,1.80322169 5.96928651,1.90833724 C5.94180013,2.03892227 5.83836815,2.12228084 5.77067978,2.22782808 C5.71779824,2.28286805 5.6649167,2.33786485 5.61199199,2.39286166 C5.5847526,2.36773753 5.5758167,2.33061253 5.5936885,2.30475453 C5.69168124,2.16320468 5.58729955,2.13432488 5.48568065,2.09650919 C5.16308167,1.97654363 4.83120144,1.88252241 4.51283298,1.75103084 C3.69258632,1.41220047 2.83767528,1.16743448 2.01738545,0.829035785 C1.93903443,0.796745669 1.84591975,0.801321541 1.78125318,0.735316744" id="Fill-23" fill="#81B642"></path>
                            <path d="M2.47075077,5.43384379 C2.5642108,5.55484539 2.71461022,5.56796865 2.84165542,5.612864 C3.50917156,5.84890993 4.17025557,6.10243914 4.8369515,6.3398233 C5.46358696,6.56291865 6.08707112,6.79404336 6.71033943,7.0258156 C6.77936603,7.05150092 6.87804946,7.05965978 6.87368943,7.17327955 C6.74616938,7.30032475 6.61226036,7.4193406 6.4533999,7.50684336 C6.45236385,7.4490406 6.49199263,7.42391647 6.53524757,7.39762679 C6.57129336,7.37574031 6.61476414,7.34802606 6.60095019,7.29760513 C6.58843129,7.25206225 6.53995295,7.23721225 6.49967664,7.22503871 C5.85698246,7.03026196 5.24217519,6.75812708 4.60742403,6.54297475 C3.86466501,6.29125862 3.13900077,5.99412911 2.39775266,5.73939118 C2.23271908,5.68266763 2.0474826,5.67399074 1.92035106,5.53097315 C1.91132882,5.49367548 1.93640978,5.48750237 1.96395135,5.48210629 C2.09371618,5.45655048 2.22607112,5.4451108 2.35242563,5.39999961 C2.38989597,5.38661734 2.43759728,5.40021545 2.47075077,5.43384379" id="Fill-25" fill="#62924A"></path>
                            <path d="M2.47075077,5.43384379 C2.28093842,5.43017446 2.10368812,5.4977765 1.92035106,5.53097315 L1.59658653,5.56334961 C1.57845571,5.55169408 1.57789452,5.53926153 1.59490295,5.52605193 C2.15505876,5.42296531 2.71253812,5.30740295 3.26548478,5.17064481 C3.38860164,5.12972097 3.49984714,5.15739205 3.6208919,5.2015967 C4.40854626,5.48953129 5.19520775,5.78022868 5.98523638,6.06186065 C6.38001327,6.20259031 6.77043013,6.35635687 7.16503435,6.49846792 C7.24899728,6.52872911 7.35907722,6.55532097 7.32557839,6.69147475 C7.25413435,6.80228856 7.17237301,6.90403696 7.06669626,6.98458958 C7.11716036,6.82439089 7.00833231,6.79270513 6.89117272,6.7503999 C6.07848057,6.45698289 5.27347243,6.14068653 4.45374379,5.86881065 C3.9594201,5.70489946 3.48754408,5.48322868 2.98808333,5.33628275 C2.97275847,5.33179321 2.95782214,5.31577766 2.94413769,5.3173749 C2.78160789,5.33632592 2.62438783,5.37806996 2.47075077,5.43384379" id="Fill-27" fill="#669749"></path>
                            <path d="M7.32557407,6.69146612 C7.31085358,6.58565987 7.22451637,6.56260783 7.14327305,6.53303734 C6.19412494,6.18799068 5.24178235,5.85131874 4.29790081,5.49232862 C4.01726172,5.38557266 3.72380154,5.31257455 3.45309122,5.17745682 C3.40215227,5.15203051 3.3286793,5.17175856 3.26552363,5.17067935 C3.3948136,5.11279025 3.52937015,5.07165057 3.66832988,5.04445435 C3.75578948,5.04479969 3.82960779,4.98954388 3.91572916,4.98380246 C4.25546608,5.08671641 4.59058395,5.2030558 4.92276637,5.32755406 C5.53183221,5.55582964 6.14158875,5.78224897 6.75747523,5.99174621 C6.96131738,6.06103182 7.15652581,6.15250609 7.35687131,6.23098661 C7.54784922,6.30579781 7.55018032,6.32543952 7.46004427,6.51119403 C7.42702029,6.58009112 7.38337683,6.64104519 7.32557407,6.69146612" id="Fill-29" fill="#689A48"></path>
                            <path d="M2.2441156,0.512640131 L2.21173914,0.512640131 C2.20042897,0.505171962 2.19658696,0.497574288 2.20008362,0.48976077 C2.20366661,0.481904084 2.20724961,0.477932573 2.21091894,0.477932573 C2.43077664,0.342037805 2.66669307,0.244951613 2.91819336,0.185637951 C2.99861647,0.187969055 3.07217577,0.136684753 3.15488682,0.155247253 C3.41238754,0.235411352 3.65745571,0.348642602 3.91215048,0.436059026 C4.61627359,0.677673706 5.31210833,0.942038241 6.01057635,1.19919362 C6.0762358,1.22332487 6.14478754,1.24197371 6.19477679,1.29597763 C6.22106647,1.32079958 6.2083749,1.35956499 6.22741225,1.38702022 C6.19991385,1.52067022 6.14582359,1.64283737 6.06855179,1.7549894 C6.02978638,1.63791615 5.94401036,1.5871067 5.82827533,1.54976586 C4.87908406,1.24387312 3.95441254,0.869428648 3.01687679,0.530641439 C2.74910193,0.433900596 2.50468129,0.402732863 2.2441156,0.512640131" id="Fill-31" fill="#85BB41"></path>
                            <path d="M2.2441156,0.512640131 C2.4661749,0.333749433 2.69673842,0.367507282 2.9474185,0.457168474 C3.74534699,0.742685625 4.52941836,1.06588897 5.334556,1.33167807 C5.52825353,1.39561077 5.71685717,1.47568853 5.91223827,1.53323228 C6.03358522,1.56897589 6.11979292,1.60756862 6.06855179,1.75494624 C6.0377294,1.80756876 6.02041879,1.86891135 5.96922083,1.90836746 C5.89419379,1.82194391 5.78303464,1.8032519 5.68478289,1.76694711 C5.0167919,1.52015219 4.343189,1.28837996 3.67817664,1.03407371 C3.20284714,0.852290712 2.72350295,0.682638096 2.2441156,0.512640131" id="Fill-33" fill="#83B942"></path>
                            <path d="M4.95105044,4.4892327 C5.10749346,4.39452078 5.26389331,4.29980887 5.42029317,4.20514012 C5.49873052,4.19300974 5.5567923,4.1409484 5.61649448,4.09695959 C5.7091343,4.0287532 5.80384622,4.01973096 5.90555145,4.06384927 C6.56875073,4.35148169 7.26626904,4.5463016 7.93602994,4.81597587 C7.99076773,4.83803503 8.0487,4.85383474 8.09653081,4.89108924 C8.12765538,4.91284622 8.1118125,4.95415858 8.13343997,4.9799734 C8.11953968,5.09549259 8.09609913,5.20850799 8.0458077,5.31444375 C7.64598009,5.20475233 7.25482936,5.06972093 6.87529099,4.90287427 C6.58878096,4.77690828 6.28353576,4.70468721 5.99370174,4.58830465 C5.89398227,4.54824419 5.79175901,4.51366613 5.6904423,4.47723183 C5.49255741,4.40600363 5.29497471,4.33140828 5.09765102,4.48659942 C5.05910145,4.51690378 5.00065116,4.5412077 4.95105044,4.4892327" id="Fill-35" fill="#72A546"></path>
                            <path d="M4.95105044,4.4892327 C4.99715451,4.49838445 5.04127282,4.48223939 5.07231105,4.45538852 C5.26631076,4.28767849 5.46812398,4.34854622 5.67395189,4.42491148 C6.32208532,4.6652311 6.97177282,4.90144971 7.61882703,5.14461846 C7.76197413,5.19840654 7.9285186,5.19564375 8.0458077,5.31444375 C8.01882733,5.47533314 7.95813227,5.62404898 7.88297573,5.76758459 C7.85819695,5.76149782 7.84235407,5.74522326 7.83160509,5.72286192 C7.82681337,5.7076234 7.82426642,5.6919532 7.82340305,5.67602398 C7.80324331,5.57967166 7.71837384,5.56015945 7.6454189,5.52994142 C7.21230828,5.35074855 6.76365698,5.21450843 6.32359622,5.05430974 C5.86359157,4.88690189 5.41511294,4.68651323 4.94004244,4.56132427 C4.91867398,4.55571235 4.9020109,4.54202791 4.88970785,4.52337907 L4.95105044,4.4892327 Z" id="Fill-37" fill="#6FA246"></path>
                            <path d="M7.46003564,6.51120266 C7.54032924,6.35419844 7.44104145,6.30390702 7.31732023,6.25409045 C6.76903578,6.03328304 6.20508113,5.85560106 5.65286834,5.64614699 C5.07043753,5.42525324 4.48498491,5.21346807 3.89530177,5.0129499 C4.05809058,4.91292824 4.20879218,4.80241661 4.42571442,4.8897467 C4.90592198,5.08305571 5.40585759,5.22378536 5.88632416,5.4169217 C6.41699581,5.63030411 6.96048855,5.8075544 7.49767866,6.00263333 C7.56372663,6.0265919 7.63227837,6.04998929 7.64756006,6.13317519 C7.65369,6.18173987 7.62342881,6.22218885 7.61678084,6.26803391 C7.57633186,6.35670222 7.53156602,6.44256458 7.46003564,6.51120266" id="Fill-39" fill="#6A9C48"></path>
                            <path d="M3.11827984,0.188858328 C3.05236138,0.140725334 2.98368013,0.26336734 2.91819336,0.185663852 C3.39101908,0.0196805669 3.87938551,-0.0181782994 4.37573813,0.00720484012 C4.84709612,0.0312929215 5.29449554,0.157820102 5.73339074,0.321558619 C5.90230949,0.412946555 6.07019219,0.506277078 6.24062185,0.594772718 C6.3109435,0.631293358 6.33744903,0.680117049 6.33636071,0.760324317 C6.33334801,0.975649317 6.31694394,1.18730499 6.22741225,1.38700295 C6.20077722,1.3733185 6.19473362,1.34905775 6.19404292,1.3220342 C6.18765397,1.27929728 6.18545237,1.23707839 6.19123696,1.1934781 C6.22486531,0.938653823 6.22659205,0.931962689 5.98165339,0.845236962 C5.33114568,0.614846119 4.68011996,0.386268358 4.03975688,0.128379113 C3.92618028,0.0826203924 3.80444481,0.0982042587 3.68728522,0.106794811 C3.49613464,0.12073827 3.30899874,0.168353241 3.11827984,0.188858328" id="Fill-41" fill="#8AC140"></path>
                            <path d="M8.1334486,4.97998203 C8.10927419,4.9651752 8.10469831,4.94143247 8.10422346,4.91583349 C8.05928494,4.8558723 8.1000361,4.78965166 8.09006416,4.72718669 C8.08561779,4.64909468 8.0205627,4.63610093 7.96617026,4.61883349 C7.34441285,4.42133712 6.7478659,4.15455515 6.12878494,3.94950427 C6.04223189,3.92084032 5.94855602,3.92243756 5.86692419,3.87870776 C5.94195122,3.81369584 6.01702142,3.74872709 6.09209163,3.68371517 C6.21646038,3.57523247 6.34454163,3.58062855 6.4952864,3.63994221 C6.92602273,3.80937898 7.37104788,3.93996401 7.80312244,4.10646532 C7.93746314,4.15822448 8.07814962,4.19893247 8.18753887,4.30089672 C8.21607331,4.38580936 8.15555093,4.47452084 8.19859008,4.55891547 C8.1986332,4.70262375 8.17268887,4.84236052 8.1334486,4.97998203" id="Fill-43" fill="#76AA45"></path>
                            <path d="M8.19860298,4.55891978 C8.13907347,4.47853984 8.18219891,4.38637487 8.16898932,4.30068519 C8.10501344,4.20908141 8.12426664,4.10435437 8.12150385,4.00321033 C8.13717406,3.60713839 8.13743307,3.60636135 7.76380879,3.48315815 C7.51878379,3.40234653 7.27725545,3.31177879 7.03438888,3.22505307 C6.86879411,3.16586891 6.70773205,3.1100519 6.53596417,3.19673446 L6.77274397,2.84266557 C6.95789411,2.5938849 6.9576351,2.59461876 7.2538149,2.69360437 C7.47880967,2.76876092 7.69599092,2.86364551 7.91632347,2.95067342 C7.99312042,2.98102094 8.061629,3.02172894 8.09732943,3.10150452 C8.22109382,3.58106455 8.26719789,4.06602065 8.19860298,4.55891978" id="Fill-45" fill="#7EB243"></path>
                            <path d="M6.53597712,3.19672583 C6.6884918,3.02828193 6.85158279,3.11293557 7.01704805,3.17263775 C7.31858076,3.2814658 7.62145169,3.38658135 7.9247543,3.49035868 C8.16205212,3.57155882 8.16844108,3.57755926 8.1689591,3.83221086 C8.1690886,3.88043019 8.1689591,3.92869269 8.1689591,3.97691202 C8.09578831,4.00846827 8.03237363,3.96732859 7.96684369,3.94803222 C7.5266966,3.81856958 7.10493933,3.638686 6.67782916,3.4736956 C6.56412305,3.42974996 6.46397189,3.40747496 6.36925997,3.51004356 C6.34063919,3.54103862 6.29626186,3.55878092 6.25356811,3.52200126 C6.34767567,3.41356173 6.4418264,3.30516536 6.53597712,3.19672583" id="Fill-47" fill="#7BAF44"></path>
                            <path d="M6.25354653,3.5220099 C6.26425234,3.52110336 6.2803974,3.52451368 6.2849301,3.51872908 C6.45078388,3.30733243 6.63917167,3.40079246 6.82289725,3.48164725 C7.26144711,3.67465408 7.7179551,3.81814653 8.16898068,3.97692065 C8.16898068,4.08484217 8.16898068,4.19276368 8.16902385,4.30068519 C7.60088185,4.05406295 7.00170161,3.89123097 6.42989028,3.6556599 C6.3011615,3.60264885 6.20303926,3.65984725 6.09209594,3.68376266 C6.13595525,3.61991629 6.18862094,3.56478999 6.25354653,3.5220099" id="Fill-49" fill="#79AD44"></path>
                            <path d="M8.0973208,3.10151315 C7.75939696,2.89637594 7.38188751,2.78772057 7.01322763,2.65778307 C6.95732429,2.63805501 6.92037196,2.67716577 6.89261455,2.71765792 C6.85924522,2.76639528 6.83412109,2.82139208 6.77273533,2.8426742 C6.80856528,2.72374469 6.88281528,2.62497493 6.94325132,2.518996 C7.02445147,2.429896 6.99358592,2.28238888 7.10491775,2.20882958 C7.33686266,2.26740937 7.55525263,2.36522943 7.78033374,2.44383946 C7.87577952,2.47716563 7.88924813,2.58223801 7.94929565,2.64699092 C8.02423635,2.79018118 8.06282908,2.94515647 8.0973208,3.10151315" id="Fill-51" fill="#81B742"></path>
                            <path d="M8.13654811,4.72156182 C8.14803096,4.79002722 8.11496381,4.85106763 8.10421483,4.91582054 C7.38321279,4.6423906 6.64295756,4.42110833 5.9332657,4.11771938 C5.80388939,4.06242039 5.69924869,4.06419031 5.59050698,4.14927562 C5.54185596,4.18730717 5.49549288,4.24334001 5.42029317,4.2051358 C5.52799884,4.12091385 5.63570451,4.03673507 5.74341017,3.95251313 C5.77185828,3.93792214 5.80026323,3.92333115 5.82875451,3.90869699 C5.90063023,3.88456574 5.96641919,3.9133592 6.0306109,3.93684292 C6.69493256,4.1799685 7.35325378,4.43975717 8.02720203,4.65620455 C8.06881657,4.66958682 8.10533721,4.69099844 8.13654811,4.72156182" id="Fill-53" fill="#74A845"></path>
                            <path d="M1.01385353,5.95186705 C1.04212897,5.91236778 1.07623217,5.92156269 1.11383202,5.93718972 C1.74318711,6.19913682 2.38924844,6.4162749 3.02905033,6.65007606 C3.68314103,6.88910062 4.34172126,7.11621065 4.993006,7.36266022 C5.28422141,7.47278333 5.57392592,7.58614408 5.86837897,7.68763347 C5.90904379,7.7016201 6.00366938,7.6972169 5.96770993,7.79508013 C5.9380531,7.80949844 5.9083531,7.82395993 5.87869626,7.83842141 C5.86293972,7.83263682 5.84865092,7.82430528 5.8357435,7.81364263 C5.78484772,7.76270368 5.72100135,7.73555062 5.65465121,7.71098769 C4.60902126,7.32354946 3.56140557,6.94150731 2.51262432,6.56300499 C2.07178653,6.40388551 1.63030121,6.24731298 1.19503217,6.07347301 C1.12600557,6.04593144 1.04692068,6.03311036 1.01385353,5.95186705" id="Fill-55" fill="#5C8B4B"></path>
                            <path d="M7.9493086,2.64697797 C7.73182517,2.37475674 7.37451863,2.38619642 7.10057067,2.22854468 C7.06029436,2.08280747 7.14572503,1.94993451 7.14451631,1.8073486 C7.14421413,1.76504337 7.19144058,1.74777593 7.23098302,1.756755 C7.36044567,1.78628233 7.48904494,1.80821198 7.57154015,1.93970355 C7.67061209,2.09752797 7.73937968,2.27309468 7.85662561,2.41969526 C7.89970788,2.49049177 7.93493346,2.56448276 7.9493086,2.64697797" id="Fill-57" fill="#84B942"></path>
                            <path d="M8.13654811,4.72156182 C7.77289578,4.6416999 7.43151846,4.49432228 7.08258663,4.37047156 C6.66285828,4.22153987 6.24654026,4.06306792 5.82875451,3.90869699 C5.84144608,3.89868188 5.85418081,3.88870993 5.86691555,3.87873798 C5.93507878,3.86034815 6.00013387,3.86203173 6.06985116,3.88387504 C6.53676279,4.03025978 6.98325567,4.23142548 7.44468488,4.39231487 C7.63721686,4.45944205 7.82979201,4.52656923 8.02314419,4.59127897 C8.08858779,4.61320862 8.14647689,4.63643333 8.13654811,4.72156182" id="Fill-59" fill="#75A845"></path>
                            <path d="M7.85662561,2.41971253 C7.72103302,2.36907576 7.70255686,2.23201544 7.65204959,2.12512997 C7.56825933,1.94805235 7.45015003,1.83054741 7.25131544,1.79830047 C7.19800221,1.78970991 7.17343927,1.78806951 7.16484872,1.84971427 C7.14714959,1.97650047 7.12241398,2.10233695 7.10057067,2.22856195 C7.02411907,2.31239538 7.05278302,2.45308186 6.94326427,2.51900032 C7.03767401,2.19437241 7.14490483,1.87224828 7.12755105,1.52672677 C7.12461558,1.46844916 7.12716253,1.40986936 7.12716253,1.3113586 C7.43301209,1.66408927 7.68667081,2.01323695 7.85662561,2.41971253" id="Fill-61" fill="#87BD43"></path>
                            <path d="M7.61679379,6.26804254 C7.59197185,6.23769501 7.60237548,6.20799501 7.61860688,6.17851086 C7.65214888,6.06389821 7.70131792,5.95576086 7.75372461,5.84887539 C7.77824438,5.80328935 7.78541036,5.74462321 7.84524205,5.72524051 C7.85780411,5.73935664 7.87040935,5.75347278 7.88297141,5.76758891 C7.81977257,5.94799051 7.73732054,6.11816115 7.61679379,6.26804254" id="Fill-63" fill="#6EA047"></path>
                            <path d="M5.66590094,7.95460971 C5.51817798,7.99859852 5.37045501,8.04254416 5.22273205,8.08653297 C5.18655676,8.0213052 5.23810007,8.00386509 5.28057798,7.9862523 C5.33833757,7.9624664 5.39942115,7.94748689 5.45851897,7.92719765 C5.55098612,7.89978558 5.6381867,7.85838689 5.72802057,7.8237225 C5.77520385,7.80606654 5.82247347,7.79039634 5.86810269,7.82765084 L5.878679,7.83844299 C5.80775298,7.87716523 5.73682696,7.91593064 5.66590094,7.95460971" id="Fill-65" fill="#5C8B4B"></path>
                            <path d="M1.40367898,7.21180753 C1.32183131,7.15620637 1.24922172,7.09175564 1.20346299,7.00170593 C1.1516175,6.88420099 1.05569686,6.7887552 1.03083174,6.65756581 C1.03191096,6.63973718 1.03963814,6.62562105 1.05397012,6.6149584 C1.13996198,6.57256683 1.22180965,6.59851116 1.30296663,6.63054227 C2.29800297,7.02350608 3.31479628,7.35741523 4.31371779,7.74010491 C4.50901256,7.81495927 4.7141066,7.86563922 4.90530035,7.95193326 C5.03661924,8.01116058 5.03882084,8.05549474 4.93223756,8.15672512 C4.45677855,8.26792744 3.97911794,8.28536756 3.49878087,8.19065564 C3.54540297,8.09438965 3.6315675,8.11252047 3.71009119,8.12288093 C3.81110573,8.1362632 3.91117055,8.15137221 4.05263407,8.13147148 C3.68060703,8.00174983 3.34635253,7.87220084 3.00596808,7.76492686 C2.62945151,7.6462132 2.27395805,7.47591305 1.90115398,7.34994706 C1.73784715,7.29473442 1.57540369,7.23662948 1.40367898,7.21180753" id="Fill-67" fill="#57864C"></path>
                            <path d="M4.60856799,3.13827554 C4.49201276,3.25526246 4.33116654,3.29014269 4.18974619,3.35998949 C4.04159154,3.43316028 3.88588238,3.49096304 3.73349721,3.5555001 C3.70832991,3.41243935 3.84435419,3.43816783 3.90811422,3.38804908 C3.98378878,3.35286667 4.07021233,3.33810301 4.15547032,3.26216943 C3.93988631,3.17341478 3.73414474,3.11431696 3.53794343,3.03238295 C2.84310157,2.74220359 2.11264561,2.54885141 1.42181843,2.24805257 C1.27905985,2.18588978 1.13034401,2.13758411 0.981153314,2.09139371 C0.859115669,2.05362118 0.728919157,2.03087132 0.63075375,1.93736812 C0.673792849,1.85564996 0.71583907,1.77328426 0.785988052,1.71012859 C0.857691105,1.63661246 0.933840523,1.62694269 1.03291247,1.66493106 C1.60122715,1.88275984 2.18119735,2.06782365 2.74778529,2.2924299 C3.16241974,2.45681594 3.58784634,2.59858164 4.01361828,2.73546929 C4.17830651,2.788394 4.33276378,2.86609749 4.49322148,2.92929632 C4.56479503,2.95748542 4.62868456,2.99741638 4.65052788,3.0796094 C4.65311799,3.11099298 4.62501523,3.1204469 4.60856799,3.13827554" id="Fill-69" fill="#76AA45"></path>
                            <path d="M1.78125318,0.735316744 C2.04384781,0.756296686 2.27501568,0.877255116 2.51278836,0.972657733 C2.90182382,1.1286259 3.30195362,1.25161326 3.69591031,1.39268826 C4.08024039,1.5302666 4.45848371,1.68502605 4.84134606,1.82687808 C5.08291757,1.9163666 5.3292808,1.99290453 5.57111132,2.08174552 C5.66880188,2.1176618 5.79757382,2.15785177 5.6382385,2.28658055 C5.60616423,2.31252488 5.61130129,2.35500279 5.61199199,2.39286166 C5.57965871,2.44686558 5.53597208,2.48955933 5.48252935,2.52249698 C5.38453661,2.40753898 5.25313138,2.34615323 5.11494868,2.29823608 C3.98410391,1.90574712 2.86517368,1.48053637 1.74041568,1.0714275 C1.63966016,1.03477735 1.52474533,1.08044974 1.43871031,0.999724448 C1.53972484,0.894522558 1.65256757,0.804645523 1.78125318,0.735316744" id="Fill-71" fill="#7EB343"></path>
                            <path d="M3.92764801,3.42643892 C3.86596007,3.47409706 3.7537217,3.44560578 3.73347562,3.55551305 C3.56887374,3.64301581 3.39628565,3.71035884 3.21683376,3.76026174 C3.21441632,3.75542686 3.20876124,3.74946959 3.20996996,3.74597294 C3.26919728,3.58042134 3.26842025,3.58283878 3.08655092,3.51894924 C2.47683754,3.30483297 1.86380019,3.1000411 1.26466312,2.85613849 C1.04066124,2.76492323 0.803492922,2.70582541 0.579145683,2.61461015 C0.452618503,2.56315317 0.386484201,2.59488209 0.350179404,2.7198552 C0.338264869,2.76099488 0.321299608,2.80118485 0.297988561,2.83805084 C0.28408827,2.85911712 0.265914288,2.87526218 0.242732747,2.88553631 C0.225465305,2.88955099 0.210140451,2.88566581 0.196801352,2.87396712 C0.231595247,2.7145023 0.293628532,2.56561378 0.371288852,2.42268253 C0.437077805,2.36893762 0.460000334,2.28851451 0.492678968,2.21625026 C0.535718067,2.12114983 0.59347766,2.10457308 0.685340451,2.14605811 C1.14784888,2.35499416 1.63461807,2.49883195 2.10960222,2.67439866 C2.66051996,2.8779818 3.20655964,3.0948177 3.76412533,3.28052904 C3.83492185,3.3040991 3.93088565,3.31368253 3.92764801,3.42643892" id="Fill-73" fill="#73A646"></path>
                            <path d="M4.60856799,3.13827554 C4.6190148,3.12631783 4.62941843,3.11436013 4.63982206,3.10235926 C4.68398355,2.98109865 4.82212308,2.95934167 4.90686305,2.85616871 C4.80645288,2.79832278 4.70388427,2.76629167 4.60481233,2.73387205 C4.15434794,2.58658077 3.71346698,2.41429487 3.2706866,2.24585097 C2.81815012,2.07369458 2.35814547,1.9204892 1.8993927,1.76486638 C1.69015448,1.69385403 1.49447119,1.59050839 1.28544881,1.51854632 C1.17877919,1.48180984 1.09114692,1.46609647 1.0099036,1.56391653 C0.978779041,1.60143004 0.935998953,1.65836943 0.883246919,1.58062278 C0.924818285,1.50520722 0.976145756,1.43812321 1.04633791,1.38683891 C1.15425942,1.32294937 1.2140911,1.20255214 1.32883326,1.14643295 C1.65095738,1.23579196 1.96531116,1.34841885 2.27729067,1.46713251 C3.21379038,1.82335984 4.16078006,2.15096638 5.09853166,2.50382656 C5.30427323,2.58127103 5.31264794,2.62331725 5.15806116,2.8054456 C4.98750201,2.93719618 4.82717381,3.08586885 4.60856799,3.13827554" id="Fill-75" fill="#7AAF44"></path>
                            <path d="M4.93222461,8.15671217 C5.04670775,8.02319167 4.92475644,7.99664298 4.83980063,7.96607961 C4.465831,7.83152307 4.08918493,7.70434836 3.71534481,7.56944647 C3.28555818,7.41438484 2.86064961,7.2455956 2.42827286,7.09839065 C2.02611414,6.96150301 1.63211429,6.80501682 1.23811443,6.64762408 C1.17513144,6.62249996 1.11020586,6.63592539 1.04618682,6.63178121 C0.936840741,6.5388392 0.92915673,6.41356391 0.935243503,6.28388542 C1.00988202,6.23216943 1.08029001,6.27421565 1.14879859,6.29774254 C2.16641211,6.64714923 3.16977999,7.03596885 4.1835515,7.39621086 C4.56291719,7.53102641 4.94396647,7.66471958 5.31905847,7.81257205 C5.38886211,7.84007045 5.4852576,7.84663208 5.48171778,7.95912946 C5.40401429,8.01913382 5.27671007,7.97829632 5.22270615,8.08652001 C5.13002315,8.126969 5.03345499,8.1514456 4.93222461,8.15671217" id="Fill-77" fill="#59894B"></path>
                            <path d="M0.883251235,1.58062278 C0.952018823,1.62167612 0.96695516,1.55243368 0.990352544,1.52096376 C1.06391185,1.42210766 1.14774528,1.41286958 1.25644382,1.45992336 C1.93565865,1.75390156 2.64802696,1.95895243 3.33626403,2.22741798 C3.84630109,2.42642525 4.36441068,2.60065374 4.87816025,2.78796231 C4.91606228,2.80181943 4.97166344,2.80984879 4.97399455,2.86104676 C4.97598031,2.90447437 4.92258074,2.91047481 4.89318292,2.93128208 C4.80995385,2.99007772 4.72443685,3.04559254 4.63982638,3.10235926 C4.49961475,2.91789981 4.27621722,2.88323542 4.08087929,2.80958978 C3.64444469,2.6451174 3.18974978,2.52670592 2.76009266,2.3474267 C2.1847415,2.10736609 1.58914426,1.92683499 1.00995109,1.70050199 C0.921714462,1.66605344 0.859638009,1.689494 0.785992369,1.71012859 C0.808094695,1.65923281 0.836197456,1.61278339 0.883251235,1.58062278" id="Fill-79" fill="#79AD44"></path>
                            <path d="M0.269130349,2.84370593 C0.365180494,2.50474605 0.364187616,2.50785419 0.67962061,2.6091709 C1.14320826,2.75805942 1.59324096,2.94264837 2.04815172,3.11463209 C2.42363224,3.25657047 2.80692628,3.37778791 3.18629198,3.50940898 C3.25057003,3.53168398 3.34282134,3.53384241 3.35879372,3.60830826 C3.37373006,3.67798238 3.26960738,3.66913282 3.23761945,3.71713631 C3.22885622,3.73030273 3.22367599,3.74575709 3.21681218,3.76021858 C3.11450259,3.81538805 3.00308442,3.84422468 2.89157991,3.87275913 C2.51066015,3.69520666 2.11942308,3.54338267 1.72278994,3.40524314 C1.29542076,3.25639779 0.867706221,3.10858849 0.44141625,2.95672134 C0.376879186,2.93371247 0.30837061,2.90893369 0.269130349,2.84370593" id="Fill-81" fill="#6FA246"></path>
                            <path d="M7.78046756,5.85473769 C7.74709823,5.97293333 7.69400084,6.08128653 7.61858529,6.17850222 C7.62816872,6.10395004 7.58219416,6.07394786 7.52119692,6.05262257 C7.05640055,5.8899201 6.59078398,5.72937606 6.12762802,5.56214089 C5.81141799,5.44795993 5.50008602,5.32035353 5.18404866,5.20565455 C4.88756669,5.09807839 4.58167395,5.01618754 4.29568195,4.88016327 C4.26688849,4.86643565 4.24513151,4.87329946 4.21996422,4.88340092 C4.11187003,4.92691487 4.00356,4.96982446 3.89529314,5.0129499 C3.81797817,5.01130949 3.75275041,5.09699917 3.66831262,5.04441981 L4.41038093,4.75242737 C4.61357555,4.64847737 4.8002366,4.71089917 4.99756029,4.78899118 C5.87004096,5.13421051 6.76190433,5.42749801 7.63943573,5.75950775 C7.69404401,5.78014234 7.75681116,5.78838754 7.78046756,5.85473769" id="Fill-83" fill="#6C9E47"></path>
                            <path d="M3.92764801,3.42643892 C3.89963158,3.36591654 3.84165615,3.34860593 3.78566647,3.33038878 C3.10260964,3.10789779 2.43975571,2.82984881 1.76192228,2.59384605 C1.38238391,2.46170695 1.00250019,2.33289183 0.63617141,2.16746974 C0.565418067,2.13552497 0.54491298,2.16954183 0.513745247,2.22134416 C0.471440015,2.29149314 0.468677224,2.39138529 0.371288852,2.4227257 C0.440099608,2.25147584 0.52294016,2.08773733 0.630775334,1.93738108 C0.967878968,2.04098573 1.29885266,2.16017424 1.62809961,2.28782381 C2.14746109,2.48911901 2.6853419,2.64357628 3.20120673,2.85285767 C3.54185019,2.99104038 3.8985092,3.09058718 4.24856342,3.26097366 C4.14664234,3.35633311 4.0299576,3.37821959 3.92764801,3.42643892" id="Fill-85" fill="#74A845"></path>
                            <path d="M0.014819782,3.84627951 C0.00691992733,3.69199491 0.0316123692,3.541725 0.0711979797,3.39335451 C0.102667892,3.30239826 0.110006555,3.20323997 0.164528503,3.12005407 C0.249095799,3.05288372 0.330382282,3.1065423 0.408560625,3.13188227 C0.992243328,3.32121977 1.56103286,3.5514811 2.13612501,3.76456134 C2.22164202,3.79624709 2.31354798,3.81208997 2.39155365,3.86302892 C2.42358475,3.8839657 2.45622022,3.90744942 2.44996077,3.9516109 C2.44396033,3.99348445 2.40342501,3.98808837 2.37471789,3.99896686 C2.31000815,4.02344346 2.23506746,4.01964462 2.17942312,4.06928852 C2.00955467,4.11724884 1.83791629,4.15610058 1.6613567,4.16931017 C1.63912487,4.09445581 1.59837371,4.04817907 1.51743257,4.01869491 C1.11449682,3.87192166 0.705646962,3.74146613 0.308323125,3.57915218 C0.161031846,3.51893198 0.142210334,3.53602674 0.0985237064,3.69238343 C0.0829398401,3.74820044 0.100423125,3.82685363 0.014819782,3.84627951" id="Fill-87" fill="#6C9E47"></path>
                            <path d="M0.014819782,3.84627951 C0.0349363517,3.76443183 0.0620894041,3.6834907 0.0733564099,3.6004343 C0.087645218,3.49523241 0.144282427,3.47459782 0.231483009,3.50606773 C0.70508577,3.67710174 1.17795467,3.85020785 1.65155743,4.02141453 C1.77234318,4.06505799 1.65548577,4.12031381 1.6613567,4.16931017 C1.14825467,4.27386453 0.631310625,4.28534738 0.111128939,4.23842311 C0.0278998692,4.23095494 -0.00318152616,4.19469331 0.000271962209,4.11815538 C0.00428664244,4.02750131 0.00989856105,3.93693358 0.014819782,3.84627951" id="Fill-89" fill="#689A48"></path>
                            <path d="M1.40367898,7.21180753 C1.57808015,7.14170172 1.73111285,7.23999663 1.87577084,7.29710869 C2.55977738,7.56695564 3.25328102,7.80939052 3.94816605,8.04854459 C4.0176675,8.07246 4.09174483,8.08687831 4.14946125,8.16656756 C4.00238581,8.19678558 3.86666372,8.19842599 3.73223669,8.16751727 C3.64961198,8.14843674 3.57311721,8.14709852 3.49878087,8.19061247 C2.78792346,8.09719561 2.15546023,7.82173674 1.5979377,7.37213573 C1.54639439,7.30379983 1.49049105,7.24077366 1.40536256,7.21310259 L1.40367898,7.21180753 Z" id="Fill-91" fill="#54834D"></path>
                            <path d="M2.17942744,4.06928852 C2.22337308,3.95709331 2.35546901,4.02111235 2.42445244,3.94409956 C2.34752599,3.83868183 2.21745898,3.84153096 2.11312047,3.80276555 C1.52369634,3.58377122 0.940920174,3.34643023 0.341524099,3.15467529 C0.286570465,3.13710567 0.233041395,3.10222544 0.172044157,3.13511991 C0.140315233,3.14319244 0.126932965,3.13257297 0.135566686,3.09941948 L0.134746483,3.10118939 C0.192247064,3.036825 0.178217267,2.94004099 0.236753895,2.87610828 C0.247546047,2.86531613 0.258338198,2.85452398 0.269130349,2.84368866 C0.701766105,3.0003907 1.12952381,3.17263343 1.56837584,3.30930523 C1.9736427,3.43548706 2.35546901,3.61925581 2.75659169,3.75351017 C2.81642337,3.77349724 2.88406858,3.79072151 2.89157991,3.87274186 C2.65937599,3.95709331 2.42168965,4.0214577 2.17942744,4.06928852" id="Fill-93" fill="#6EA047"></path>
                            <path d="M5.15808275,2.80542833 C5.26056501,2.60137033 5.25883827,2.60611888 5.02318086,2.52142208 C4.69501313,2.40348545 4.37060106,2.27523153 4.04299452,2.15561132 C3.43841821,1.93480391 2.8271076,1.732559 2.22827272,1.49539068 C1.92406356,1.37490711 1.61316327,1.27138879 1.30528478,1.16018647 C1.29630571,1.15276147 1.29285222,1.14486161 1.29488115,1.1364869 C1.29695324,1.12785318 1.29932751,1.12353632 1.30200397,1.12353632 L1.30088158,1.12487455 C1.40884626,1.01419025 1.52980469,1.04186132 1.65715208,1.08502993 C2.46755629,1.35984126 3.25970019,1.68485769 4.06980222,1.96035972 C4.47761603,2.09906045 4.87934307,2.25442426 5.27925702,2.41406176 C5.35134859,2.44281205 5.45944278,2.45891394 5.41756923,2.58630449 C5.34323289,2.67372092 5.25534161,2.74516496 5.15808275,2.80542833" id="Fill-95" fill="#7DB143"></path>
                            <path d="M7.78046756,5.85473769 C6.99479895,5.5885169 6.22993762,5.26436385 5.4387866,5.01316574 C5.33198747,4.97923522 5.23080026,4.92799408 5.12577105,4.88793362 C4.89555288,4.80025818 4.67366625,4.666306 4.41038093,4.75242737 C4.52046087,4.6848685 4.63710244,4.63112359 4.75879474,4.588214 C4.93915317,4.56598217 5.09766828,4.65050629 5.2524709,4.71335978 C5.80744648,4.93857039 6.37748791,5.12078507 6.93842076,5.32859874 C7.20123122,5.42590077 7.4585161,5.53766429 7.7248664,5.62572824 C7.77675506,5.64290935 7.82432686,5.66885368 7.84522047,5.72523188 C7.82363616,5.76840048 7.80205186,5.81156908 7.78046756,5.85473769" id="Fill-97" fill="#6EA047"></path>
                            <path d="M5.41757786,2.58629586 C5.41257031,2.49577129 5.33844981,2.48195734 5.2742581,2.45566766 C4.54863702,2.15871083 3.79590606,1.93496795 3.06894676,1.64267333 C2.60061057,1.45428554 2.11517961,1.31541214 1.6472751,1.12754237 C1.53059036,1.0807476 1.41701376,1.04979571 1.30093339,1.12490908 C1.33672016,1.07202754 1.38157234,1.02911795 1.43872757,0.999720131 C1.596811,0.962163445 1.73076318,1.03360749 1.87416929,1.0836399 C2.65616856,1.35646548 3.42983629,1.65152289 4.20773455,1.93518379 C4.59120126,2.07505007 4.9833017,2.19121679 5.35627844,2.35970385 C5.42750664,2.39190763 5.49541086,2.42557914 5.48254661,2.52249266 C5.46972554,2.55275385 5.44870243,2.57464033 5.41757786,2.58629586" id="Fill-99" fill="#7DB143"></path>
                            <path d="M7.84524205,5.72523187 C7.44014786,5.57086094 7.03734161,5.41014423 6.62935513,5.26375949 C6.16106211,5.09561778 5.68884074,4.93887257 5.23000164,4.74470019 C5.07804815,4.68042214 4.91616589,4.63971414 4.75881632,4.588214 C4.7954233,4.55247039 4.83906676,4.53079975 4.88970353,4.52337475 C5.10291327,4.5370592 5.29518624,4.62413028 5.49147388,4.69622185 C6.24286661,4.9722419 6.99361182,5.25011821 7.74543624,5.52505906 C7.84757315,5.56244307 7.9102108,5.60936734 7.84524205,5.72523187" id="Fill-101" fill="#6EA047"></path>
                            <path d="M0.949122209,6.27567044 C0.958317122,6.40068672 0.977138634,6.52306971 1.0462084,6.63176826 L1.0462084,6.66414471 C1.03347366,6.6831389 1.01922802,6.68439078 1.00342831,6.66785721 C0.911133837,6.49298119 0.860799244,6.31124137 0.913033256,6.11288163 L0.981455494,6.113745 C0.984779477,6.12026346 0.988146628,6.12678192 0.991643285,6.13325721 C0.993197355,6.18540488 0.990736744,6.23643017 0.949122209,6.27567044" id="Fill-103" fill="#5B8B4B"></path>
                            <path d="M1.59489863,5.52603898 C1.59545983,5.53847154 1.59602102,5.5509041 1.59658221,5.56333666 C1.49327974,5.6111243 1.37232131,5.60020265 1.27281767,5.66050919 C1.23711724,5.67004945 1.2014168,5.67958971 1.16575953,5.68912997 C1.28619994,5.57533753 1.43301637,5.53087387 1.59489863,5.52603898" id="Fill-105" fill="#62924A"></path>
                            <path d="M1.00344126,6.66785721 C1.0176869,6.66664849 1.03193254,6.66535343 1.04617818,6.66414471 C1.08917411,6.78104529 1.18051888,6.87545503 1.20344141,7.00168003 C1.11179446,6.90541404 1.03935754,6.79757887 1.00344126,6.66785721" id="Fill-107" fill="#59894B"></path>
                            <path d="M1.30201692,1.12353632 C1.30309613,1.13575304 1.30417535,1.14796975 1.30525456,1.16018647 C1.22979584,1.24812092 1.16871227,1.35245943 1.04637244,1.38682164 C1.11414715,1.28213778 1.20626895,1.20106714 1.30201692,1.12353632" id="Fill-109" fill="#7DB143"></path>
                            <path d="M0.236732311,2.87612124 C0.221839142,2.95978199 0.229220974,3.0535442 0.134768067,3.10115917 C0.137228677,3.02047705 0.159676352,2.94523417 0.19684452,2.87400597 C0.210097282,2.87469667 0.223436381,2.87538737 0.236732311,2.87612124" id="Fill-111" fill="#6FA246"></path>
                            <path d="M0.135579637,3.09942811 C0.147710015,3.11129948 0.159883561,3.12321401 0.172013939,3.13512855 C0.138428765,3.22120674 0.104800422,3.30728494 0.0712152471,3.39336314 C0.0734600145,3.29118305 0.0914181541,3.19245645 0.135579637,3.09942811" id="Fill-113" fill="#6FA246"></path>
                            <path d="M1.40536256,7.21311554 C1.51173,7.21505812 1.57000762,7.27514882 1.59789453,7.37214868 C1.5228675,7.33230406 1.46092055,7.27661656 1.40536256,7.21311554" id="Fill-115" fill="#57864C"></path>
                            <path d="M2.21094052,0.477945523 C2.21119953,0.489514709 2.21145855,0.501083895 2.21176073,0.512653081 C2.15874968,0.544900029 2.1115664,0.593551047 2.04007919,0.573779826 C2.0870898,0.524179099 2.14467672,0.493313547 2.21094052,0.477945523" id="Fill-117" fill="#83B942"></path>
                            <path d="M5.86810701,7.82763358 C5.82567227,7.83911642 5.78323753,7.85059927 5.74075962,7.86208212 C5.46176093,7.77885305 5.18712227,7.68029913 4.91930424,7.56901047 C4.34615468,7.33084927 3.74533404,7.16991672 3.17265933,6.93434564 C2.48442227,6.65120276 1.76713273,6.4501234 1.07911151,6.16814608 C1.04423128,6.1538141 1.00753797,6.14345363 0.981420959,6.11375363 C0.977967471,6.05690058 0.983018198,6.00181744 1.01384058,5.95187137 C1.4776009,6.13715102 1.94002299,6.32424375 2.41500715,6.48167965 C2.95500323,6.66074302 3.48459567,6.87110363 4.01910933,7.06678692 C4.57430076,7.27002471 5.13013971,7.47149259 5.68515846,7.6752484 C5.76281878,7.70373968 5.86115686,7.71220073 5.86810701,7.82763358" id="Fill-119" fill="#5B8B4B"></path>
                            <path d="M3.11827984,0.188858328 C3.45085077,0.0768357994 3.78290368,-0.00993309593 4.1339076,0.121515305 C4.69048042,0.329976497 5.24968653,0.531271701 5.80772708,0.735675044 C5.89820847,0.768871701 5.98821501,0.80323391 6.07891225,0.835783038 C6.26799074,0.903557747 6.29652519,0.945733474 6.24541356,1.14154626 C6.22982969,1.20129161 6.25055062,1.27381487 6.19404292,1.3220342 C5.79343827,1.16921734 5.39348115,1.01480324 4.99214263,0.863972137 C4.39999888,0.641481148 3.79050135,0.465957602 3.21234423,0.205435073 C3.1841983,0.192743503 3.14974975,0.19408173 3.11827984,0.188858328" id="Fill-121" fill="#88BE41"></path>
                            <path d="M0.98143391,6.11374932 C1.09229089,6.09751792 1.17392272,6.17228594 1.26906632,6.2054826 C1.7704265,6.38027228 2.27476531,6.54698943 2.77340586,6.72924728 C3.73049699,7.07895615 4.68435048,7.43755775 5.64006022,7.79102228 C5.68171792,7.80643347 5.72221007,7.81688028 5.74077257,7.86207781 C5.65443536,7.89441109 5.56805499,7.92678754 5.48171778,7.95912083 C5.39149539,7.83276632 5.23820368,7.82085179 5.11193551,7.78230222 C4.55618289,7.61290862 4.03246138,7.35881821 3.47852185,7.18497824 C2.93015106,7.01290818 2.39852969,6.79296414 1.86133958,6.58899249 C1.56092926,6.47485469 1.25343929,6.37949525 0.949100625,6.27567475 C0.945517631,6.21886487 0.950697863,6.16373856 0.98143391,6.11374932" id="Fill-123" fill="#5B8A4B"></path>
                            <path d="M19.7868825,4.38649574 C19.4471024,4.38649574 19.1073655,4.38671158 18.7676286,4.38632307 C18.710128,4.3862799 18.6413604,4.4019501 18.6549153,4.30218746 C18.7257119,3.78157408 19.0082504,3.23713164 19.6277199,3.11047496 C20.3533841,2.96214763 21.0081223,3.5607235 20.9393116,4.29912249 C20.9310664,4.38761812 20.885912,4.38727278 20.8222815,4.38705693 C20.4771485,4.38589138 20.1320155,4.38649574 19.7868825,4.38649574" id="Fill-125" fill="#FCFCFC"></path>
                            <path d="M29.9904427,5.57431012 C29.9904427,5.83841564 29.9882411,6.10252116 29.9917377,6.36662669 C29.9928601,6.44817218 29.9786577,6.49621884 29.8828234,6.5057591 C29.474362,6.54633759 29.065469,6.57577858 28.6588207,6.50170125 C28.3669146,6.4485607 28.1242639,6.31685328 28.0562302,5.99636956 C27.9828436,5.65045953 28.0409917,5.33912756 28.3470571,5.11832015 C28.731344,4.8410482 29.1782254,4.74223526 29.6373667,4.69449078 C29.9983857,4.65697727 29.9992491,4.66561099 29.9992491,5.02421259 L29.9992491,5.54197683 L29.9992491,5.57435328 C29.9963136,5.57431012 29.9933782,5.57431012 29.9904427,5.57431012" id="Fill-127" fill="#FAFAFC"></path>
                            <path d="M36.3984508,4.06593863 C36.5347773,3.42009314 37.0736078,3.02169009 37.6967466,3.10586887 C37.7592547,3.13984256 37.7428075,3.19591858 37.7359005,3.24858427 C37.7123736,3.43023776 37.7251947,3.59561669 37.9214823,3.68393965 C37.9461316,3.69507715 37.9707377,3.71597076 37.9751409,3.74182875 C38.0071289,3.92762642 37.9910701,4.11458965 37.9760043,4.30043049 C37.9714284,4.35642017 37.90987,4.36401785 37.8593195,4.36423369 C37.3959477,4.36613311 36.9326191,4.36535608 36.4692905,4.36483805 C36.3671104,4.36470855 36.3267909,4.31968369 36.3698732,4.22311552 C36.392882,4.17157221 36.3724633,4.11506451 36.3984508,4.06593863" id="Fill-129" fill="#F7F8FA"></path>
                            <path d="M37.6773639,3.27530564 C37.6852637,3.21888427 37.7299432,3.16716828 37.6967466,3.10586887 C38.1211371,3.14282119 38.3719899,3.39859517 38.5286919,3.76975884 C38.5940492,3.92469096 38.6196914,4.08899067 38.6322966,4.25639852 C38.6393762,4.35054924 38.6153745,4.38940099 38.5105611,4.38871029 C37.827677,4.38452294 37.144836,4.38396174 36.4620382,4.38940099 C36.3456556,4.3903507 36.3187184,4.3481318 36.3440152,4.248585 C36.3596854,4.18706974 36.3801473,4.1267632 36.3984508,4.06593863 C36.4257334,4.14998791 36.336806,4.25501712 36.3974579,4.30958224 C36.4674774,4.37256523 36.5834283,4.33099387 36.6790467,4.3317709 C37.0401089,4.33483587 37.4012575,4.3331523 37.7623629,4.33293645 C37.9716011,4.33285012 37.9764791,4.32659067 37.9348214,4.1260725 C37.9293822,4.09995549 37.9196261,4.07163689 37.9245905,4.04685811" id="Fill-131" fill="#F7F7F9"></path>
                        </g>
                        <text id="an" font-family="SourceSansPro-Semibold, Source Sans Pro" font-size="9" font-weight="500" fill="#8492A8">
                            <tspan x="62.6329867" y="9.36888889">an</tspan>
                        </text>
                        <text id="business" font-family="SourceSansPro-Semibold, Source Sans Pro" font-size="9" font-weight="500" fill="#8492A8">
                            <tspan x="118.632987" y="9.36888889">business</tspan>
                        </text>
                    </g>
                    <g id="Basic" fill-rule="nonzero">
                        <g id="Group-9" transform="translate(0.000000, 2.000000)">
                            <polygon id="Rectangle-4" fill="url(#linearGradient-1)" transform="translate(12.137323, 15.000000) scale(-1, 1) translate(-12.137323, -15.000000) " points="0 3 10.2932785 3 24.2746468 27 13.9813683 27"></polygon>
                            <polygon id="Rectangle-4" fill="url(#linearGradient-2)" points="0 0 10.2932785 0 24.2746468 24 13.9813683 24"></polygon>
                        </g>
                        <path d="M101.637991,13.4308148 C100.104247,13.4308148 99.184,12.842963 98.4362996,12.1034074 L99.184,11.4207407 C99.682467,11.9706667 100.506855,12.4637037 101.637991,12.4637037 C102.826643,12.4637037 103.670203,11.9517037 103.670203,10.8897778 C103.670203,10.0933333 103.018361,9.65718519 102.15563,9.29688889 L101.005322,8.82281481 C99.9125286,8.3677037 98.8772511,7.79881481 98.8772511,6.54725926 C98.8772511,5.20088889 100.046731,4.2717037 101.714678,4.2717037 C103.018361,4.2717037 103.766062,4.70785185 104.245357,5.08711111 L103.651031,5.88355556 C103.229251,5.56118519 102.481551,5.23881481 101.73385,5.23881481 C100.794432,5.23881481 100.046731,5.69392593 100.046731,6.54725926 C100.046731,7.17303704 100.698573,7.53333333 101.52296,7.87466667 L102.539066,8.29185185 C103.727718,8.78488889 104.839683,9.46755556 104.839683,10.8897778 C104.839683,12.5016296 103.401797,13.4308148 101.637991,13.4308148 Z M109.90104,13.4308148 C107.830485,13.4308148 106.565145,12.2551111 106.335084,10.5674074 C106.277568,10.0933333 106.277568,9.37274074 106.277568,8.82281481 L106.277568,4.46133333 L107.447048,4.46133333 L107.447048,8.82281481 C107.447048,9.33481481 107.447048,10.0174815 107.523736,10.4536296 C107.715454,11.6482963 108.424811,12.4637037 109.90104,12.4637037 C110.955489,12.4637037 112.220828,11.8758519 112.891841,11.1362963 L112.891841,4.46133333 L114.061322,4.46133333 L114.061322,13.2222222 L113.064388,13.2222222 L112.911013,12.312 C112.105797,12.9567407 111.07052,13.4308148 109.90104,13.4308148 Z M116.438626,13.2222222 L116.438626,4.46133333 L117.608106,4.46133333 L117.608106,13.2222222 L116.438626,13.2222222 Z M117.01378,1.74962963 C116.592,1.74962963 116.246907,1.4082963 116.246907,0.991111111 C116.246907,0.573925926 116.592,0.232592593 117.01378,0.232592593 C117.435559,0.232592593 117.780652,0.573925926 117.780652,0.991111111 C117.780652,1.4082963 117.435559,1.74962963 117.01378,1.74962963 Z M122.875559,13.4308148 C121.456846,13.4308148 120.479084,12.7671111 120.153163,11.7241481 C119.980617,11.1931852 119.961445,10.5294815 119.961445,9.84681481 L119.961445,1.23762963 L121.130925,1.23762963 L121.130925,4.46133333 L124.37096,4.46133333 L124.37096,5.42844444 L121.130925,5.42844444 L121.130925,9.6002963 C121.130925,10.2260741 121.130925,10.9466667 121.245956,11.3638519 C121.418502,11.9896296 121.936141,12.4637037 122.894731,12.4637037 C123.584916,12.4637037 124.121727,12.293037 124.620194,12.0465185 L125.00363,12.8998519 C124.390132,13.2411852 123.699947,13.4308148 122.875559,13.4308148 Z M129.374802,13.4308148 C126.748264,13.4308148 124.811912,11.4965926 124.811912,8.86074074 C124.811912,6.3197037 126.671577,4.2717037 129.393974,4.2717037 C132.212229,4.2717037 133.573427,6.35762963 133.573427,8.50044444 L133.573427,8.93659259 L126.038907,8.93659259 C126.038907,11.0794074 127.495965,12.4637037 129.374802,12.4637037 C130.697656,12.4637037 131.886308,11.8568889 132.499806,11.4017778 L133.017445,12.2361481 C132.078026,12.9188148 130.851031,13.4308148 129.374802,13.4308148 Z M126.096423,7.96948148 L132.403947,7.96948148 C132.442291,7.07822222 131.656247,5.23881481 129.374802,5.23881481 C127.304247,5.23881481 126.230626,6.81274074 126.096423,7.96948148 Z" id="suite" fill="#000000"></path>
                        <path d="M35.8547313,13.4118519 C33.2281938,13.4118519 30.9275771,11.4965926 30.9275771,8.84177778 C30.9275771,6.09214815 33.2857093,4.2717037 35.9314185,4.2717037 C37.7910837,4.2717037 39.0755947,4.85955556 40.1492159,6.0162963 L38.4620969,7.68503704 C37.8294273,6.96444444 37.2542731,6.54725926 35.9314185,6.54725926 C34.301815,6.54725926 33.5732863,7.53333333 33.5732863,8.84177778 C33.5732863,10.1691852 34.3209868,11.1173333 35.8930749,11.1173333 C37.4459912,11.1173333 38.1361762,10.4536296 38.6346432,9.97955556 L40.1683877,11.6862222 C39.1906256,12.7860741 37.7335683,13.4118519 35.8547313,13.4118519 Z M45.9966167,13.4118519 C43.3125639,13.4118519 40.9736035,11.4776296 40.9736035,8.84177778 C40.9736035,6.22488889 43.2933921,4.2717037 45.9966167,4.2717037 C48.9299031,4.2717037 51.0579736,6.22488889 51.0579736,8.84177778 C51.0579736,11.5345185 48.7765286,13.4118519 45.9966167,13.4118519 Z M45.9966167,11.1362963 C47.6837357,11.1362963 48.4314361,10.1502222 48.4314361,8.84177778 C48.4314361,7.53333333 47.7412511,6.54725926 45.9966167,6.54725926 C44.3670132,6.54725926 43.6193128,7.53333333 43.6193128,8.84177778 C43.6193128,10.1881481 44.3478414,11.1362963 45.9966167,11.1362963 Z M52.2657974,13.2222222 L52.2657974,4.46133333 L54.6622731,4.46133333 L54.7581322,5.08711111 C55.2374273,4.72681481 56.061815,4.2717037 57.250467,4.2717037 C59.4360529,4.2717037 60.7013921,5.58014815 60.8355947,7.45748148 C60.8547665,7.87466667 60.8739383,8.5762963 60.8739383,9.0882963 L60.8739383,13.2222222 L58.2474009,13.2222222 L58.2474009,8.95555556 C58.2474009,8.55733333 58.2474009,8.04533333 58.1707137,7.66607407 C58.0556828,7.00237037 57.5763877,6.54725926 56.752,6.54725926 C55.9659559,6.54725926 55.3141145,6.88859259 54.8923348,7.3437037 L54.8923348,13.2222222 L52.2657974,13.2222222 Z M65.16363,13.4118519 C63.5148546,13.4118519 62.4795771,12.5774815 62.192,11.4207407 C62.0577974,10.8518519 62.0577974,10.1881481 62.0577974,9.50548148 L62.0577974,1.65481481 L64.6843348,1.65481481 L64.6843348,4.46133333 L67.9818855,4.46133333 L67.9818855,6.73688889 L64.6843348,6.73688889 L64.6843348,9.29688889 C64.6843348,9.80888889 64.7226784,10.3777778 64.7418502,10.6242963 C64.7801938,10.8897778 64.8377093,11.1362963 65.1828018,11.1362963 C65.6429251,11.1362963 66.2180793,10.9087407 67.0808106,10.3967407 L68.0394009,12.5395556 C67.0041233,13.1274074 66.045533,13.4118519 65.16363,13.4118519 Z M69.7361057,13.2222222 L69.7361057,4.46133333 L72.1325815,4.46133333 L72.2476123,5.27674074 C72.6118767,4.89748148 73.4362643,4.2717037 74.5290573,4.2717037 C75.6218502,4.2717037 76.4845815,4.59407407 77.1555947,5.20088889 L75.8710837,7.24888889 C75.4301322,6.86962963 74.950837,6.54725926 74.1072775,6.54725926 C73.2637181,6.54725926 72.6885639,7.09718519 72.3626432,7.53333333 L72.3626432,13.2222222 L69.7361057,13.2222222 Z M80.4291806,13.4118519 C78.3969692,13.4118519 76.5756476,12.5395556 76.5756476,10.4346667 C76.5756476,8.34874074 78.3202819,7.59022222 80.5825551,7.59022222 C81.1385374,7.59022222 81.9437533,7.704 82.4230485,7.8557037 C82.4230485,7.66607407 82.4230485,7.192 82.3463612,7.02133333 C82.1929868,6.71792593 81.6370044,6.54725926 81.1193656,6.54725926 C80.3716652,6.54725926 79.6239648,6.62311111 78.5886872,7.15407407 L77.5342379,5.16296296 C78.7612335,4.49925926 79.9690573,4.2717037 81.2343965,4.2717037 C83.2666079,4.2717037 84.646978,5.39051852 84.9153833,6.49037037 C85.0687577,7.15407407 85.0687577,7.74192593 85.0687577,8.50044444 L85.0687577,13.2222222 L82.8064846,13.2222222 L82.6914537,12.5964444 C82.3080176,12.9567407 81.7520352,13.4118519 80.4291806,13.4118519 Z M80.5442115,11.1362963 C81.1193656,11.1362963 81.9820969,10.8328889 82.4230485,10.4915556 L82.4230485,9.9037037 C82.0587841,9.77096296 81.4261145,9.58133333 80.5825551,9.58133333 C79.7581674,9.58133333 79.202185,9.78992593 79.202185,10.4346667 C79.202185,11.0414815 79.7581674,11.1362963 80.5442115,11.1362963 Z M85.9698326,13.2222222 L89.7466784,8.44355556 L86.6025022,4.46133333 L89.9000529,4.46133333 L91.5104846,6.50933333 L93.1209163,4.46133333 L96.418467,4.46133333 L93.1592599,8.59525926 L96.8210749,13.2222222 L93.5043524,13.2222222 L91.3954537,10.5484444 L89.2865551,13.2222222 L85.9698326,13.2222222 Z" id="contrax" fill="#000000"></path>
                    </g>
                </g>
            </g>
        </g>
    </g>
</svg>