<svg xmlns="http://www.w3.org/2000/svg" viewBox="0 0 68 65" class="new_p_icn" style="display: inline-block; vertical-align: middle;"><g><rect id="Rectangle-7" fill="#6DB5F4" x="0" y="0" width="46" height="46" rx="4"/><path d="M15.8079679,19.9909 C14.7934872,19.894258 14,19.0397934 14,18 C14,16.8954305 14.8954305,16 16,16 C17.0397934,16 17.894258,16.7934872 17.9909,17.8079679 C18.8754735,17.294196 19.9033802,17 21,17 C21.4497724,17 21.887986,17.0494892 22.3094924,17.1433192 C22.1097042,16.6342491 22,16.0799359 22,15.5 C22,13.0147186 24.0147186,11 26.5,11 C28.9852814,11 31,13.0147186 31,15.5 C31,17.9852814 28.9852814,20 26.5,20 C26.3962296,20 26.2932796,19.9964875 26.1912623,19.9895751 C26.7055102,20.874447 27,21.9028326 27,23 C27,24.6659766 26.3210116,26.173367 25.2246686,27.2605375 C26.2710182,27.7290194 27,28.7793783 27,30 C27,31.6568542 25.6568542,33 24,33 C22.3431458,33 21,31.6568542 21,30 C21,29.6484655 21.0604631,29.311053 21.1715571,28.9975945 C21.1145666,28.9991946 21.0573774,29 21,29 C17.6862915,29 15,26.3137085 15,23 C15,21.9033802 15.294196,20.8754735 15.8079679,19.9909 Z M30.5,24 C29.6715729,24 29,23.3284271 29,22.5 C29,21.6715729 29.6715729,21 30.5,21 C31.3284271,21 32,21.6715729 32,22.5 C32,23.3284271 31.3284271,24 30.5,24 Z M18.5,32 C17.6715729,32 17,31.3284271 17,30.5 C17,29.6715729 17.6715729,29 18.5,29 C19.3284271,29 20,29.6715729 20,30.5 C20,31.3284271 19.3284271,32 18.5,32 Z M11.5,24 C10.6715729,24 10,23.3284271 10,22.5 C10,21.6715729 10.6715729,21 11.5,21 C12.3284271,21 13,21.6715729 13,22.5 C13,23.3284271 12.3284271,24 11.5,24 Z" id="Combined-Shape" fill="#FFFFFF"/><rect id="Rectangle-7" fill="#E2F0FD" x="28" y="16" width="40" height="40" rx="4"/><path d="M35,24 L46,24 C46.5522847,24 47,24.4477153 47,25 C47,25.5522847 46.5522847,26 46,26 L35,26 C34.4477153,26 34,25.5522847 34,25 C34,24.4477153 34.4477153,24 35,24 Z M50,24 L61,24 C61.5522847,24 62,24.4477153 62,25 C62,25.5522847 61.5522847,26 61,26 L50,26 C49.4477153,26 49,25.5522847 49,25 C49,24.4477153 49.4477153,24 50,24 Z M35,28 L54,28 C54.5522847,28 55,28.4477153 55,29 C55,29.5522847 54.5522847,30 54,30 L35,30 C34.4477153,30 34,29.5522847 34,29 C34,28.4477153 34.4477153,28 35,28 Z M58,28 L61,28 C61.5522847,28 62,28.4477153 62,29 C62,29.5522847 61.5522847,30 61,30 L58,30 C57.4477153,30 57,29.5522847 57,29 C57,28.4477153 57.4477153,28 58,28 Z M35,32 L43,32 C43.5522847,32 44,32.4477153 44,33 C44,33.5522847 43.5522847,34 43,34 L35,34 C34.4477153,34 34,33.5522847 34,33 C34,32.4477153 34.4477153,32 35,32 Z M47,32 L61,32 C61.5522847,32 62,32.4477153 62,33 C62,33.5522847 61.5522847,34 61,34 L47,34 C46.4477153,34 46,33.5522847 46,33 C46,32.4477153 46.4477153,32 47,32 Z M35,36 L49,36 C49.5522847,36 50,36.4477153 50,37 C50,37.5522847 49.5522847,38 49,38 L35,38 C34.4477153,38 34,37.5522847 34,37 C34,36.4477153 34.4477153,36 35,36 Z M53,36 L61,36 C61.5522847,36 62,36.4477153 62,37 C62,37.5522847 61.5522847,38 61,38 L53,38 C52.4477153,38 52,37.5522847 52,37 C52,36.4477153 52.4477153,36 53,36 Z M35,40 L45,40 C45.5522847,40 46,40.4477153 46,41 C46,41.5522847 45.5522847,42 45,42 L35,42 C34.4477153,42 34,41.5522847 34,41 C34,40.4477153 34.4477153,40 35,40 Z M49,40 L61,40 C61.5522847,40 62,40.4477153 62,41 C62,41.5522847 61.5522847,42 61,42 L49,42 C48.4477153,42 48,41.5522847 48,41 C48,40.4477153 48.4477153,40 49,40 Z M35,44 L47,44 C47.5522847,44 48,44.4477153 48,45 C48,45.5522847 47.5522847,46 47,46 L35,46 C34.4477153,46 34,45.5522847 34,45 C34,44.4477153 34.4477153,44 35,44 Z M51,44 L61,44 C61.5522847,44 62,44.4477153 62,45 C62,45.5522847 61.5522847,46 61,46 L51,46 C50.4477153,46 50,45.5522847 50,45 C50,44.4477153 50.4477153,44 51,44 Z M35,48 L41,48 C41.5522847,48 42,48.4477153 42,49 C42,49.5522847 41.5522847,50 41,50 L35,50 C34.4477153,50 34,49.5522847 34,49 C34,48.4477153 34.4477153,48 35,48 Z M45,48 L51,48 C51.5522847,48 52,48.4477153 52,49 C52,49.5522847 51.5522847,50 51,50 L45,50 C44.4477153,50 44,49.5522847 44,49 C44,48.4477153 44.4477153,48 45,48 Z" id="Combined-Shape" fill="#1589EE"/><rect id="Rectangle-7" fill="#1589EE" x="17" y="41" width="24" height="24" rx="4"/><path d="M32.7202682,56.0186919 L32.3471698,55.7284862 L32.6159718,55.3396839 C33.1886738,54.5113124 33.5,53.5296005 33.5,52.5 C33.5,49.7385763 31.2614237,47.5 28.5,47.5 C25.7385763,47.5 23.5,49.7385763 23.5,52.5 C23.5,55.2614237 25.7385763,57.5 28.5,57.5 C29.5296005,57.5 30.5113124,57.1886738 31.3396839,56.6159718 L31.7284862,56.3471698 L32.0186919,56.7202682 C32.0315433,56.7367904 32.0455342,56.752641 32.0606602,56.767767 L33.4748737,58.1819805 C33.6701359,58.3772427 33.9867184,58.3772427 34.1819805,58.1819805 C34.3772427,57.9867184 34.3772427,57.6701359 34.1819805,57.4748737 L32.767767,56.0606602 C32.752641,56.0455342 32.7367904,56.0315433 32.7202682,56.0186919 Z M28.5,56.5 C26.290861,56.5 24.5,54.709139 24.5,52.5 C24.5,50.290861 26.290861,48.5 28.5,48.5 C30.709139,48.5 32.5,50.290861 32.5,52.5 C32.5,54.709139 30.709139,56.5 28.5,56.5 Z" id="Combined-Shape" stroke="#FFFFFF"/></g></svg>