<svg xmlns="http://www.w3.org/2000/svg" viewBox="0 0 21 21" class="dashboard-proj-icn" style="display: inline-block; vertical-align: middle;"><path d="M6,5 L15,5 C15.5522847,5 16,5.44771525 16,6 L16,15 C16,15.5522847 15.5522847,16 15,16 L6,16 C5.44771525,16 5,15.5522847 5,15 L5,6 C5,5.44771525 5.44771525,5 6,5 Z M7,7 L7,8 L14,8 L14,7 L7,7 Z M7,9 L7,10 L14,10 L14,9 L7,9 Z M7,11 L7,12 L14,12 L14,11 L7,11 Z M7,13 L7,14 L14,14 L14,13 L7,13 Z M17,10.5 L21,8 L21,13 L17,10.5 Z M4,10.5 L0,13 L3.061617e-16,8 L4,10.5 Z" style="fill: rgb(21, 137, 238);"/></svg>