<svg xmlns="http://www.w3.org/2000/svg" viewBox="0 0 21 21" class="-sb" style="display: inline-block; vertical-align: middle;"><path d="M17.9560029,10.2249915 C17.9335924,10.0275714 17.7038855,9.88055635 17.5049928,9.88055635 C16.8596104,9.89475693 16.2737992,9.50526517 16.0373984,8.90478819 C15.8009977,8.30431121 15.9641366,7.62018106 16.4460996,7.1908818 C16.5982551,7.05309952 16.617255,6.82089501 16.4895199,6.66022763 C16.1623142,6.24654037 15.7897488,5.87082294 15.3788026,5.5401133 C15.2173885,5.4113599 14.9836232,5.43037326 14.845154,5.58351773 C14.3966464,6.05558787 13.7077272,6.21089758 13.0999412,5.97695789 C12.496754,5.71892204 12.1194806,5.11125164 12.1559015,4.45640267 C12.166979,4.2503097 12.0163147,4.07092519 11.811341,4.0461608 C11.2883635,3.98605109 10.7602988,3.98464218 10.2370078,4.04196037 C10.0350397,4.06445421 9.88402608,4.23793495 9.88964601,4.4410011 C9.91281375,5.08993429 9.53030325,5.68498231 8.93019915,5.93355346 C8.32532323,6.15826033 7.64475047,6.00384079 7.19619154,5.5401133 C7.05867208,5.38971569 6.82839454,5.37078728 6.66814561,5.49670887 C6.24922994,5.82551589 5.8694971,6.20135226 5.53641851,6.6168232 C5.40832436,6.77789977 5.42603051,7.01043727 5.57703743,7.15027766 C6.06791738,7.59012069 6.22691434,8.29214869 5.97342204,8.90045631 C5.70103704,9.49196794 5.10057128,9.86270896 4.44951229,9.84135235 C4.24403531,9.82834233 4.06539319,9.98087698 4.04612441,10.1857875 C3.9846252,10.7141929 3.9846252,11.2479445 4.04612441,11.7763499 C4.06433289,11.9807707 4.30244379,12.120785 4.50273708,12.120785 C5.1342593,12.1156965 5.70493849,12.4963809 5.94260769,13.0812831 C6.18559666,13.6832026 6.02991278,14.3726481 5.55182569,14.8118597 C5.40052386,14.9494868 5.38155638,15.1806836 5.50840546,15.3411137 C5.83389126,15.7553927 6.2056006,16.1311946 6.61632147,16.4612281 C6.77702083,16.5906864 7.01072316,16.5729046 7.14997001,16.4206239 C7.59911981,15.9477744 8.28873142,15.791453 8.89798414,16.0243835 C9.50320302,16.279478 9.88197075,16.8880906 9.84342448,17.5435386 C9.83234694,17.7496315 9.98301126,17.929016 10.187985,17.9537804 C10.4558355,17.9842369 10.7251831,17.9996627 10.9947607,17.9999852 C11.2517078,18.0005308 11.5084665,17.9860378 11.7637188,17.9565807 C11.9667923,17.9340099 12.1181908,17.7588666 12.1110806,17.5547397 C12.086638,16.906273 12.4681763,16.3109994 13.0677262,16.0621873 C13.6723384,15.8384396 14.3521426,15.9952605 14.7975318,16.4612281 C14.9350513,16.6116257 15.1653288,16.6305541 15.3255778,16.5046325 C15.7438557,16.1751037 16.1235106,15.7993445 16.4573049,15.3845182 C16.5868103,15.2238773 16.569022,14.9902599 16.4166859,14.8510637 C15.932811,14.4246287 15.7659107,13.7420115 15.9984611,13.1405374 C16.2310115,12.5390633 16.8137753,12.146081 17.4587713,12.1557886 L17.5456117,12.1557886 C17.7517797,12.1668621 17.9312295,12.0162526 17.9560029,11.8113534 C18.0146657,11.2841919 18.0146657,10.752153 17.9560029,10.2249915 Z M11.0101679,13.3487104 C9.72064515,13.3487104 8.67528042,12.3037258 8.67528042,11.0146721 C8.67528042,9.72561839 9.72064515,8.68063387 11.0101679,8.68063387 C12.2996906,8.68063387 13.3450553,9.72561839 13.3450553,11.0146721 C13.3435118,12.3030862 12.2990507,13.3471674 11.0101679,13.3487104 Z" style="fill: rgb(21, 137, 238);"/></svg>