<?xml version="1.0" encoding="UTF-8" standalone="no"?>
<!DOCTYPE svg PUBLIC "-//W3C//DTD SVG 1.1//EN"
 "http://www.w3.org/Graphics/SVG/1.1/DTD/svg11.dtd">
<!-- Generated by graphviz version 2.40.1 (20161225.0304)
 -->
<!-- Title: model_graph Pages: 1 -->
<svg width="375pt" height="203pt"
 viewBox="0.00 0.00 375.00 203.00" xmlns="http://www.w3.org/2000/svg" xmlns:xlink="http://www.w3.org/1999/xlink">
<g id="graph0" class="graph" transform="scale(1 1) rotate(0) translate(4 199)">
<title>model_graph</title>
<polygon fill="#ffffff" stroke="transparent" points="-4,4 -4,-199 371,-199 371,4 -4,4"/>
<g id="clust1" class="cluster">
<title>cluster_apps_similarity</title>
<path fill="none" stroke="#698b22" d="M12,-73C12,-73 254,-73 254,-73 260,-73 266,-79 266,-85 266,-85 266,-183 266,-183 266,-189 260,-195 254,-195 254,-195 12,-195 12,-195 6,-195 0,-189 0,-183 0,-183 0,-85 0,-85 0,-79 6,-73 12,-73"/>
<text text-anchor="start" x="38.5" y="-177.9" font-family="Helvetica,sans-Serif" font-size="8.00" fill="#000000"> &#160;&#160;&#160;&#160;&#160;&#160;&#160;&#160;&#160;</text>
<text text-anchor="start" x="61.5" y="-177.9" font-family="Helvetica Bold" font-size="12.00" fill="#000000"> &#160;&#160;&#160;&#160;&#160;&#160;&#160;&#160;&#160;apps.similarity &#160;&#160;&#160;&#160;&#160;&#160;&#160;&#160;&#160;</text>
<text text-anchor="start" x="204.5" y="-177.9" font-family="Helvetica,sans-Serif" font-size="8.00" fill="#000000"> &#160;&#160;&#160;&#160;&#160;&#160;&#160;&#160;&#160;</text>
</g>
<!-- apps_similarity_models_DocumentSimilarityConfig -->
<g id="node1" class="node">
<title>apps_similarity_models_DocumentSimilarityConfig</title>
<polygon fill="#eee8aa" stroke="transparent" points="16,-85 16,-154 250,-154 250,-85 16,-85"/>
<polygon fill="#698b22" stroke="transparent" points="16,-136.5 16,-153.5 250,-153.5 250,-136.5 16,-136.5"/>
<text text-anchor="start" x="59.5" y="-144.1" font-family="Helvetica,sans-Serif" font-size="8.00" fill="#000000"> &#160;&#160;&#160;&#160;&#160;</text>
<text text-anchor="start" x="73.5" y="-144.1" font-family="Helvetica Bold" font-size="8.00" fill="#ffffff"> &#160;&#160;&#160;&#160;&#160;DocumentSimilarityConfig &#160;&#160;&#160;&#160;&#160;</text>
<text text-anchor="start" x="18" y="-129.1" font-family="Helvetica,sans-Serif" font-size="8.00" fill="#000000"> &#160;&#160;&#160;&#160;&#160;</text>
<text text-anchor="start" x="32" y="-129.1" font-family="Helvetica Bold" font-size="8.00" fill="#000000">dst_field</text>
<text text-anchor="start" x="67" y="-129.1" font-family="Helvetica,sans-Serif" font-size="8.00" fill="#000000"> &#160;&#160;&#160;&#160;&#160;</text>
<text text-anchor="start" x="135" y="-129.1" font-family="Helvetica,sans-Serif" font-size="8.00" fill="#000000"> &#160;&#160;&#160;&#160;&#160;</text>
<text text-anchor="start" x="149" y="-129.1" font-family="Helvetica Bold" font-size="8.00" fill="#000000">OneToOneField (uid)</text>
<text text-anchor="start" x="234" y="-129.1" font-family="Helvetica,sans-Serif" font-size="8.00" fill="#000000"> &#160;&#160;&#160;&#160;&#160;</text>
<text text-anchor="start" x="18" y="-116.1" font-family="Helvetica,sans-Serif" font-size="8.00" fill="#000000"> &#160;&#160;&#160;&#160;&#160;</text>
<text text-anchor="start" x="32" y="-116.1" font-family="Helvetica Bold" font-size="8.00" fill="#7b7b7b">date_constraint_field</text>
<text text-anchor="start" x="117" y="-116.1" font-family="Helvetica,sans-Serif" font-size="8.00" fill="#000000"> &#160;&#160;&#160;&#160;&#160;</text>
<text text-anchor="start" x="135" y="-116.1" font-family="Helvetica,sans-Serif" font-size="8.00" fill="#000000"> &#160;&#160;&#160;&#160;&#160;</text>
<text text-anchor="start" x="149" y="-116.1" font-family="Helvetica Bold" font-size="8.00" fill="#7b7b7b">ForeignKey (uid)</text>
<text text-anchor="start" x="216" y="-116.1" font-family="Helvetica,sans-Serif" font-size="8.00" fill="#000000"> &#160;&#160;&#160;&#160;&#160;</text>
<text text-anchor="start" x="18" y="-103.1" font-family="Helvetica,sans-Serif" font-size="8.00" fill="#000000"> &#160;&#160;&#160;&#160;&#160;</text>
<text text-anchor="start" x="32" y="-103.1" font-family="Helvetica " font-size="8.00" fill="#7b7b7b">date_constraint_days</text>
<text text-anchor="start" x="111" y="-103.1" font-family="Helvetica,sans-Serif" font-size="8.00" fill="#000000"> &#160;&#160;&#160;&#160;&#160;</text>
<text text-anchor="start" x="135" y="-103.1" font-family="Helvetica,sans-Serif" font-size="8.00" fill="#000000"> &#160;&#160;&#160;&#160;&#160;</text>
<text text-anchor="start" x="149" y="-103.1" font-family="Helvetica " font-size="8.00" fill="#7b7b7b">IntegerField</text>
<text text-anchor="start" x="192" y="-103.1" font-family="Helvetica,sans-Serif" font-size="8.00" fill="#000000"> &#160;&#160;&#160;&#160;&#160;</text>
<text text-anchor="start" x="18" y="-90.1" font-family="Helvetica,sans-Serif" font-size="8.00" fill="#000000"> &#160;&#160;&#160;&#160;&#160;</text>
<text text-anchor="start" x="32" y="-90.1" font-family="Helvetica " font-size="8.00" fill="#000000">similarity_threshold</text>
<text text-anchor="start" x="102" y="-90.1" font-family="Helvetica,sans-Serif" font-size="8.00" fill="#000000"> &#160;&#160;&#160;&#160;&#160;</text>
<text text-anchor="start" x="135" y="-90.1" font-family="Helvetica,sans-Serif" font-size="8.00" fill="#000000"> &#160;&#160;&#160;&#160;&#160;</text>
<text text-anchor="start" x="149" y="-90.1" font-family="Helvetica " font-size="8.00" fill="#000000">FloatField</text>
<text text-anchor="start" x="185" y="-90.1" font-family="Helvetica,sans-Serif" font-size="8.00" fill="#000000"> &#160;&#160;&#160;&#160;&#160;</text>
</g>
<!-- apps_document_models_DocumentField -->
<g id="node2" class="node">
<title>apps_document_models_DocumentField</title>
<polygon fill="#eee8aa" stroke="transparent" points="92,-9.5 92,-26.5 172,-26.5 172,-9.5 92,-9.5"/>
<polygon fill="#698b22" stroke="transparent" points="92,-9 92,-26 172,-26 172,-9 92,-9"/>
<text text-anchor="start" x="96.5" y="-16.6" font-family="Helvetica,sans-Serif" font-size="8.00" fill="#000000"> &#160;</text>
<text text-anchor="start" x="101.5" y="-16.6" font-family="Helvetica Bold" font-size="8.00" fill="#ffffff">DocumentField</text>
<text text-anchor="start" x="162.5" y="-16.6" font-family="Helvetica,sans-Serif" font-size="8.00" fill="#000000"> &#160;</text>
</g>
<!-- apps_similarity_models_DocumentSimilarityConfig&#45;&gt;apps_document_models_DocumentField -->
<g id="edge1" class="edge">
<title>apps_similarity_models_DocumentSimilarityConfig&#45;&gt;apps_document_models_DocumentField</title>
<path fill="none" stroke="#000000" d="M49.893,-80.656C43.406,-72.741 41.539,-63.798 48,-54 56.297,-41.417 70.004,-33.215 83.963,-27.876"/>
<text text-anchor="middle" x="122" y="-56.6" font-family="Helvetica,sans-Serif" font-size="8.00" fill="#000000">dst_field (similar_documents_field_config)</text>
</g>
<!-- apps_similarity_models_DocumentSimilarityConfig&#45;&gt;apps_document_models_DocumentField -->
<g id="edge2" class="edge">
<title>apps_similarity_models_DocumentSimilarityConfig&#45;&gt;apps_document_models_DocumentField</title>
<path fill="none" stroke="#000000" d="M197.53,-73.595C200.01,-67.35 199.95,-60.754 196,-54 191.75,-46.737 185.44,-40.826 178.41,-36.053"/>
<ellipse fill="#000000" stroke="#000000" cx="195.4813" cy="-77.2612" rx="4" ry="4"/>
<text text-anchor="middle" x="282.5" y="-56.6" font-family="Helvetica,sans-Serif" font-size="8.00" fill="#000000">date_constraint_field (documentsimilarityconfig)</text>
</g>
</g>
</svg>
