<?xml version="1.0" encoding="UTF-8" standalone="no"?>
<!DOCTYPE svg PUBLIC "-//W3C//DTD SVG 1.1//EN"
 "http://www.w3.org/Graphics/SVG/1.1/DTD/svg11.dtd">
<!-- Generated by graphviz version 2.40.1 (20161225.0304)
 -->
<!-- Title: model_graph Pages: 1 -->
<svg width="238pt" height="130pt"
 viewBox="0.00 0.00 238.00 130.00" xmlns="http://www.w3.org/2000/svg" xmlns:xlink="http://www.w3.org/1999/xlink">
<g id="graph0" class="graph" transform="scale(1 1) rotate(0) translate(4 126)">
<title>model_graph</title>
<polygon fill="#ffffff" stroke="transparent" points="-4,4 -4,-126 234,-126 234,4 -4,4"/>
<g id="clust1" class="cluster">
<title>cluster_apps_deployment</title>
<path fill="none" stroke="#698b22" d="M12,0C12,0 218,0 218,0 224,0 230,-6 230,-12 230,-12 230,-110 230,-110 230,-116 224,-122 218,-122 218,-122 12,-122 12,-122 6,-122 0,-116 0,-110 0,-110 0,-12 0,-12 0,-6 6,0 12,0"/>
<text text-anchor="start" x="12" y="-104.9" font-family="Helvetica,sans-Serif" font-size="8.00" fill="#000000"> &#160;&#160;&#160;&#160;&#160;&#160;&#160;&#160;&#160;</text>
<text text-anchor="start" x="35" y="-104.9" font-family="Helvetica Bold" font-size="12.00" fill="#000000"> &#160;&#160;&#160;&#160;&#160;&#160;&#160;&#160;&#160;apps.deployment &#160;&#160;&#160;&#160;&#160;&#160;&#160;&#160;&#160;</text>
<text text-anchor="start" x="195" y="-104.9" font-family="Helvetica,sans-Serif" font-size="8.00" fill="#000000"> &#160;&#160;&#160;&#160;&#160;&#160;&#160;&#160;&#160;</text>
</g>
<!-- apps_deployment_models_Deployment -->
<g id="node1" class="node">
<title>apps_deployment_models_Deployment</title>
<polygon fill="#eee8aa" stroke="transparent" points="25,-12 25,-81 205,-81 205,-12 25,-12"/>
<polygon fill="#698b22" stroke="transparent" points="25,-63.5 25,-80.5 205,-80.5 205,-63.5 25,-63.5"/>
<text text-anchor="start" x="70" y="-71.1" font-family="Helvetica,sans-Serif" font-size="8.00" fill="#000000"> &#160;&#160;&#160;&#160;&#160;</text>
<text text-anchor="start" x="84" y="-71.1" font-family="Helvetica Bold" font-size="8.00" fill="#ffffff"> &#160;&#160;&#160;&#160;&#160;Deployment &#160;&#160;&#160;&#160;&#160;</text>
<text text-anchor="start" x="27" y="-56.1" font-family="Helvetica,sans-Serif" font-size="8.00" fill="#000000"> &#160;&#160;&#160;&#160;&#160;</text>
<text text-anchor="start" x="41" y="-56.1" font-family="Helvetica Bold" font-size="8.00" fill="#000000">id</text>
<text text-anchor="start" x="49" y="-56.1" font-family="Helvetica,sans-Serif" font-size="8.00" fill="#000000"> &#160;&#160;&#160;&#160;&#160;</text>
<text text-anchor="start" x="122" y="-56.1" font-family="Helvetica,sans-Serif" font-size="8.00" fill="#000000"> &#160;&#160;&#160;&#160;&#160;</text>
<text text-anchor="start" x="136" y="-56.1" font-family="Helvetica Bold" font-size="8.00" fill="#000000">AutoField</text>
<text text-anchor="start" x="176" y="-56.1" font-family="Helvetica,sans-Serif" font-size="8.00" fill="#000000"> &#160;&#160;&#160;&#160;&#160;</text>
<text text-anchor="start" x="27" y="-43.1" font-family="Helvetica,sans-Serif" font-size="8.00" fill="#000000"> &#160;&#160;&#160;&#160;&#160;</text>
<text text-anchor="start" x="41" y="-43.1" font-family="Helvetica " font-size="8.00" fill="#7b7b7b">deployment_date</text>
<text text-anchor="start" x="104" y="-43.1" font-family="Helvetica,sans-Serif" font-size="8.00" fill="#000000"> &#160;&#160;&#160;&#160;&#160;</text>
<text text-anchor="start" x="122" y="-43.1" font-family="Helvetica,sans-Serif" font-size="8.00" fill="#000000"> &#160;&#160;&#160;&#160;&#160;</text>
<text text-anchor="start" x="136" y="-43.1" font-family="Helvetica " font-size="8.00" fill="#7b7b7b">DateTimeField</text>
<text text-anchor="start" x="189" y="-43.1" font-family="Helvetica,sans-Serif" font-size="8.00" fill="#000000"> &#160;&#160;&#160;&#160;&#160;</text>
<text text-anchor="start" x="27" y="-30.1" font-family="Helvetica,sans-Serif" font-size="8.00" fill="#000000"> &#160;&#160;&#160;&#160;&#160;</text>
<text text-anchor="start" x="41" y="-30.1" font-family="Helvetica " font-size="8.00" fill="#000000">installation_id</text>
<text text-anchor="start" x="90" y="-30.1" font-family="Helvetica,sans-Serif" font-size="8.00" fill="#000000"> &#160;&#160;&#160;&#160;&#160;</text>
<text text-anchor="start" x="122" y="-30.1" font-family="Helvetica,sans-Serif" font-size="8.00" fill="#000000"> &#160;&#160;&#160;&#160;&#160;</text>
<text text-anchor="start" x="136" y="-30.1" font-family="Helvetica " font-size="8.00" fill="#000000">UUIDField</text>
<text text-anchor="start" x="174" y="-30.1" font-family="Helvetica,sans-Serif" font-size="8.00" fill="#000000"> &#160;&#160;&#160;&#160;&#160;</text>
<text text-anchor="start" x="27" y="-17.1" font-family="Helvetica,sans-Serif" font-size="8.00" fill="#000000"> &#160;&#160;&#160;&#160;&#160;</text>
<text text-anchor="start" x="41" y="-17.1" font-family="Helvetica " font-size="8.00" fill="#7b7b7b">last_report_date</text>
<text text-anchor="start" x="101" y="-17.1" font-family="Helvetica,sans-Serif" font-size="8.00" fill="#000000"> &#160;&#160;&#160;&#160;&#160;</text>
<text text-anchor="start" x="122" y="-17.1" font-family="Helvetica,sans-Serif" font-size="8.00" fill="#000000"> &#160;&#160;&#160;&#160;&#160;</text>
<text text-anchor="start" x="136" y="-17.1" font-family="Helvetica " font-size="8.00" fill="#7b7b7b">DateTimeField</text>
<text text-anchor="start" x="189" y="-17.1" font-family="Helvetica,sans-Serif" font-size="8.00" fill="#000000"> &#160;&#160;&#160;&#160;&#160;</text>
</g>
</g>
</svg>
